<svg xmlns="http://www.w3.org/2000/svg" width="172" height="25" viewBox="0 0 172 25" fill="none"><path d="M32.6074 8.64222H48.6117V0.492676H32.6074V8.64222Z" fill="#212162"></path><path d="M0.626953 0.492676V8.64222H8.61481V24.9413H16.6027V8.64222H24.6191V0.492676H0.626953Z" fill="#212162"></path><path d="M24.6191 24.9412H48.6112V16.7917H32.607V8.64209H24.6191V24.9412Z" fill="#212162"></path><path d="M69.0094 6.64746H57.2559V10.0384H61.1927V20.667H65.0725V10.0384H69.0094V6.64746Z" fill="#212162"></path><path d="M73.4306 9.92432C70.6634 9.92432 68.6094 11.7765 68.6094 15.4239C68.6094 18.6438 70.3496 20.8949 73.5162 20.8949C75.1708 20.8949 76.5117 20.4675 77.7954 19.6981L76.4261 17.39C75.3705 17.9314 74.6288 18.1309 73.6874 18.1309C72.7174 18.1309 72.0327 17.618 71.8901 16.4497H78.0807C78.1092 16.2787 78.1092 16.0507 78.1092 15.7373C78.1378 11.8335 76.3405 9.92432 73.4306 9.92432ZM71.9472 14.1986C72.0613 13.1443 72.5177 12.6029 73.345 12.6029C74.4006 12.6029 74.7714 13.1443 74.9426 14.1986H71.9472Z" fill="#212162"></path><path d="M84.985 17.9599C84.0151 17.9599 83.5016 17.105 83.5016 15.4239C83.5016 13.7711 83.958 12.8308 84.8994 12.8308C85.6697 12.8308 86.012 13.2582 86.5255 14.1986L89.0075 12.3179C88.0946 10.8362 86.9535 9.92432 84.9565 9.92432C81.5902 9.92432 79.9355 12.1469 79.9355 15.3669C79.9355 18.9002 81.7899 20.8664 84.8709 20.8664C86.7252 20.8664 87.8663 20.154 89.0931 18.3588L86.8108 16.5636C86.1261 17.5895 85.6697 17.9599 84.985 17.9599Z" fill="#212162"></path><path d="M97.4227 9.92445C96.1674 9.92445 95.4257 10.3519 94.7696 10.8363V6.07764L91.1465 7.53088V20.6955H94.7696V14.6831C94.7696 13.3723 95.226 13.0019 95.9963 13.0019C96.738 13.0019 97.1944 13.3723 97.1944 14.7116V20.6955H100.818V14.2557C100.818 11.4917 99.7049 9.92445 97.4227 9.92445Z" fill="#212162"></path><path d="M109.519 17.5044C107.835 17.5044 107.151 15.7947 107.151 13.6576C107.151 11.435 107.864 9.81081 109.49 9.81081C110.774 9.81081 111.259 10.6371 111.744 11.9479L115.281 10.5516C114.311 7.90165 112.942 6.41992 109.49 6.41992C105.724 6.41992 103.071 9.15543 103.071 13.6576C103.071 17.8178 105.296 20.8953 109.462 20.8953C112.799 20.8953 114.368 19.1001 115.31 17.2764L112.029 15.5382C111.259 16.849 110.745 17.5044 109.519 17.5044Z" fill="#212162"></path><path d="M121.13 10.9217V10.1523H117.507V20.6669H121.13V14.9394C121.13 13.6572 121.672 13.2297 122.556 13.2297C123.27 13.2297 123.783 13.6002 124.239 14.1131L125.095 10.3803C124.667 10.1238 124.154 9.92432 123.384 9.92432C122.442 9.92432 121.729 10.3233 121.13 10.9217Z" fill="#212162"></path><path d="M132.826 16.1647C132.826 17.4755 132.37 17.8459 131.628 17.8459C130.886 17.8459 130.43 17.4755 130.43 16.1362V10.1523H126.807V16.5921C126.807 19.3561 127.919 20.8948 130.23 20.8948C131.457 20.8948 132.227 20.4674 132.855 19.983V20.6954H136.478V10.1808H132.855V16.1647" fill="#212162"></path><path d="M145.35 9.92432C144.095 9.92432 143.353 10.3518 142.697 10.8362V10.1238H139.074V20.6384H142.697V14.626C142.697 13.3152 143.154 12.9448 143.924 12.9448C144.666 12.9448 145.122 13.3152 145.122 14.6545V20.6384H148.745V14.1986C148.745 11.4916 147.661 9.92432 145.35 9.92432Z" fill="#212162"></path><path d="M155.933 17.9599C154.964 17.9599 154.45 17.105 154.45 15.4239C154.45 13.7711 154.906 12.8308 155.819 12.8308C156.59 12.8308 156.932 13.2582 157.445 14.1986L159.927 12.3179C159.015 10.8362 157.873 9.92432 155.876 9.92432C152.51 9.92432 150.855 12.1469 150.855 15.3669C150.855 18.9002 152.71 20.8664 155.791 20.8664C157.645 20.8664 158.786 20.154 160.013 18.3588L157.731 16.5636C157.103 17.5895 156.618 17.9599 155.933 17.9599Z" fill="#212162"></path><path d="M168.373 9.92445C167.118 9.92445 166.376 10.3519 165.72 10.8363V6.07764L162.097 7.53088V20.6955H165.72V14.6831C165.72 13.3723 166.176 13.0019 166.946 13.0019C167.688 13.0019 168.145 13.3723 168.145 14.7116V20.6955H171.768V14.2557C171.796 11.4917 170.684 9.92445 168.373 9.92445Z" fill="#212162"></path></svg>