<svg xmlns="http://www.w3.org/2000/svg" width="135" height="29" viewBox="0 0 135 29" fill="none"><path d="M0.511719 0.74707H27.422C27.422 9.88452 27.422 19.0253 27.422 28.1628H0.511719V0.74707ZM2.49352 5.05C3.694 10.6234 4.77041 16.2269 5.9273 21.8104C6.13856 22.479 6.00778 23.3617 6.65832 23.8097C7.83198 23.9969 9.03582 23.9501 10.2195 23.8699C10.8634 23.8899 11.0176 23.1343 11.135 22.6495C11.9431 18.6743 12.8217 14.7124 13.6265 10.7371C13.6902 10.3693 13.8042 10.0116 13.9786 9.68058C14.9812 13.9467 15.8095 18.2497 16.7417 22.5292C16.8691 22.9839 16.896 23.5456 17.3453 23.8231C18.6263 23.9769 19.9408 23.9902 21.2184 23.813C21.6778 23.5422 21.7012 22.9839 21.8186 22.5225C23.0023 16.7017 24.1056 10.8574 25.3563 5.05C24.2263 5.05668 23.0996 5.05334 21.9729 5.05334C21.0742 10.1186 20.3532 15.2172 19.3606 20.2657C18.244 15.9828 17.4962 11.5963 16.5237 7.27334C16.3024 6.53446 16.403 5.45789 15.5915 5.08343C14.5989 5.02325 13.5997 5.01991 12.6071 5.08343C12.0437 5.13024 11.9163 5.79557 11.8056 6.2369C10.907 10.5231 9.96468 14.7993 9.08612 19.0855C8.99558 19.4834 8.86145 19.8645 8.71055 20.2423C7.80851 15.1905 6.95341 10.1252 6.17545 5.05334C4.94814 5.05 3.72083 5.05668 2.49352 5.05Z" fill="#212162"></path><path d="M54.0811 0.746582H80.9913C80.9913 9.88403 80.9913 19.0248 80.9913 28.1622H54.0811C54.0811 19.0248 54.0811 9.88403 54.0811 0.746582ZM60.1606 5.05285C60.1606 11.3216 60.1606 17.5871 60.1606 23.856C61.4013 23.856 62.6454 23.856 63.8895 23.856C63.8895 21.4053 63.8895 18.9512 63.8895 16.5005C65.9115 16.5072 67.9336 16.4905 69.9556 16.5039C70.6933 16.4337 71.5719 16.9586 71.5551 17.7677C71.649 19.8005 71.8234 21.8265 71.9508 23.856C73.1345 23.856 74.3149 23.856 75.4986 23.8593C75.1633 21.5591 75.5757 19.1819 74.9252 16.9285C74.5899 15.7483 73.2821 15.4841 72.2627 15.1899C73.0205 14.7887 73.993 14.7519 74.5429 14.0164C75.341 13.0067 75.398 11.6593 75.4014 10.429C75.3879 8.99135 75.4215 7.40993 74.506 6.20297C73.775 5.19996 72.4069 5.05285 71.26 5.05285C67.5613 5.04951 63.8593 5.05285 60.1606 5.05285Z" fill="#212162"></path><path d="M107.733 0.746582H134.979V28.1622H107.733C107.733 19.0248 107.733 9.88403 107.733 0.746582ZM113.813 5.05285C113.813 11.3216 113.813 17.5871 113.813 23.856C116.948 23.8493 120.08 23.8693 123.216 23.8459C125.147 23.8092 127.397 23.4514 128.561 21.7262C129.919 19.5597 129.714 16.9084 129.952 14.4644C129.711 12.0171 129.926 9.35578 128.561 7.18258C127.478 5.56773 125.405 5.14312 123.584 5.07625C120.328 5.02276 117.069 5.06622 113.813 5.05285Z" fill="#212162"></path><path d="M34.2493 4.86885C38.5851 4.85882 42.9176 4.85882 47.2501 4.86885C47.2668 5.98888 47.2668 7.11226 47.2534 8.23563C45.721 8.24566 44.1885 8.23897 42.6561 8.23897C42.6628 12.3814 42.6628 16.5272 42.6561 20.6696C44.1885 20.6696 45.721 20.6629 47.2568 20.6763C47.2635 21.7964 47.2668 22.9197 47.2501 24.0398C42.9176 24.0498 38.5851 24.0498 34.2527 24.0398C34.2359 22.9164 34.2359 21.7964 34.2493 20.673C35.7818 20.6629 37.3142 20.6696 38.8467 20.6696C38.84 16.5272 38.84 12.3814 38.8467 8.23897C37.3142 8.23897 35.7818 8.24566 34.2493 8.23563C34.2359 7.11226 34.2359 5.99222 34.2493 4.86885Z" fill="#212162"></path><path d="M85.7998 4.8724C91.1115 4.85568 96.4231 4.85568 101.738 4.8724C101.745 6.95198 101.738 9.03156 101.741 11.1111C100.591 11.1111 99.4411 11.1111 98.2909 11.1111C98.2875 10.1516 98.2875 9.19538 98.2942 8.23918C96.2152 8.24252 94.1395 8.24252 92.0604 8.23918C92.0537 9.67683 92.0571 11.1144 92.0571 12.5521C93.7337 12.5521 95.4104 12.5521 97.087 12.5521C97.087 13.6186 97.087 14.6852 97.087 15.7517C95.4104 15.7517 93.7337 15.7517 92.0571 15.7517C92.0638 17.3933 92.0403 19.0382 92.0739 20.6798C94.2066 20.6564 96.3393 20.6732 98.472 20.6698C98.4686 19.5765 98.4686 18.4832 98.472 17.39C99.6423 17.3766 100.813 17.3766 101.983 17.3866C101.983 19.6033 102 21.8199 101.973 24.0366C96.5807 24.0533 91.1919 24.0533 85.7998 24.0366C85.7831 22.9166 85.7864 21.7965 85.7965 20.6765C86.6516 20.6665 87.5033 20.6665 88.3584 20.6732C88.3752 16.5274 88.3752 12.3816 88.3584 8.23583C87.5033 8.24252 86.6482 8.24252 85.7931 8.22581C85.7864 7.10912 85.7864 5.98908 85.7998 4.8724Z" fill="#212162"></path><path d="M63.8896 8.14224C66.2839 8.17902 68.6815 8.06869 71.0691 8.19239C71.9912 8.84435 71.8068 10.1549 71.8437 11.1412C71.7967 12.0372 71.7801 13.4715 70.5829 13.5418C68.3564 13.6554 66.1196 13.5585 63.8896 13.5886C63.8896 11.7731 63.8896 9.9577 63.8896 8.14224Z" fill="#212162"></path><path d="M117.543 8.14188C119.565 8.15191 121.587 8.1285 123.609 8.14856C124.511 8.13853 125.541 8.57652 125.826 9.49929C126.459 11.3047 126.191 13.2639 126.262 15.1429C126.208 16.6441 126.366 18.2288 125.725 19.6364C125.296 20.5458 124.186 20.7865 123.27 20.7698C121.359 20.7698 119.451 20.7631 117.543 20.7665C117.543 16.5572 117.543 12.3512 117.543 8.14188Z" fill="#212162"></path></svg>