<svg width="145" height="48" viewBox="0 0 145 48" fill="none" xmlns="http://www.w3.org/2000/svg">
<path d="M85.9744 14.9114V33.3662H81.479V21.8254L77.4831 33.3662H73.5923L69.5701 21.7991V33.3662H65.0747V14.9114H70.5691L75.5903 27.7667L80.5063 14.9114H85.9744ZM93.3376 18.5129C94.4592 18.5129 95.4232 18.7671 96.2294 19.2753C97.0356 19.7836 97.6314 20.4759 98.017 21.3522V18.697H102.486V33.3662H98.017V30.711C97.6314 31.5873 97.0356 32.2796 96.2294 32.7879C95.4232 33.2961 94.4592 33.5502 93.3376 33.5502C92.1283 33.5502 91.0417 33.2523 90.0778 32.6564C89.1313 32.043 88.3777 31.1667 87.8169 30.0275C87.2736 28.8883 87.0019 27.5563 87.0019 26.0316C87.0019 24.4893 87.2736 23.1573 87.8169 22.0357C88.3777 20.8965 89.1313 20.0289 90.0778 19.4331C91.0417 18.8196 92.1283 18.5129 93.3376 18.5129ZM94.7835 22.4563C93.8195 22.4563 93.0396 22.7718 92.4438 23.4027C91.8654 24.0336 91.5762 24.9099 91.5762 26.0316C91.5762 27.1533 91.8654 28.0296 92.4438 28.6605C93.0396 29.2914 93.8195 29.6069 94.7835 29.6069C95.7299 29.6069 96.501 29.2827 97.0969 28.6342C97.7103 27.9857 98.017 27.1182 98.017 26.0316C98.017 24.9275 97.7103 24.0599 97.0969 23.429C96.501 22.7805 95.7299 22.4563 94.7835 22.4563ZM109.84 18.5129C110.962 18.5129 111.925 18.7671 112.732 19.2753C113.538 19.7836 114.134 20.4759 114.519 21.3522V18.697H118.988V33.2873C118.988 34.6544 118.726 35.8812 118.2 36.9678C117.674 38.0719 116.868 38.9482 115.781 39.5967C114.695 40.2452 113.345 40.5694 111.733 40.5694C109.524 40.5694 107.754 40.0436 106.422 38.9921C105.108 37.958 104.319 36.5472 104.056 34.7595H108.499C108.639 35.3554 108.955 35.8198 109.446 36.1528C109.954 36.4858 110.611 36.6523 111.417 36.6523C112.346 36.6523 113.091 36.3807 113.652 35.8374C114.23 35.3116 114.519 34.4616 114.519 33.2873V30.711C114.134 31.5873 113.538 32.2796 112.732 32.7879C111.925 33.2961 110.962 33.5502 109.84 33.5502C108.631 33.5502 107.544 33.2523 106.58 32.6564C105.634 32.043 104.88 31.1667 104.319 30.0275C103.776 28.8883 103.504 27.5563 103.504 26.0316C103.504 24.4893 103.776 23.1573 104.319 22.0357C104.88 20.8965 105.634 20.0289 106.58 19.4331C107.544 18.8196 108.631 18.5129 109.84 18.5129ZM111.286 22.4563C110.322 22.4563 109.542 22.7718 108.946 23.4027C108.368 24.0336 108.079 24.9099 108.079 26.0316C108.079 27.1533 108.368 28.0296 108.946 28.6605C109.542 29.2914 110.322 29.6069 111.286 29.6069C112.232 29.6069 113.003 29.2827 113.599 28.6342C114.213 27.9857 114.519 27.1182 114.519 26.0316C114.519 24.9275 114.213 24.0599 113.599 23.429C113.003 22.7805 112.232 22.4563 111.286 22.4563ZM120.348 14.5696C120.348 13.8861 120.594 13.3253 121.085 12.8871C121.575 12.4314 122.224 12.2036 123.03 12.2036C123.836 12.2036 124.485 12.4314 124.975 12.8871C125.466 13.3253 125.711 13.8861 125.711 14.5696C125.711 15.2356 125.466 15.7964 124.975 16.2521C124.485 16.6902 123.836 16.9093 123.03 16.9093C122.224 16.9093 121.575 16.6902 121.085 16.2521C120.594 15.7964 120.348 15.2356 120.348 14.5696ZM125.265 18.697V33.3662H120.769V18.697H125.265ZM133.679 18.5129C135.571 18.5129 137.158 19.0387 138.437 20.0903C139.716 21.1243 140.523 22.5527 140.856 24.3754H136.097C135.957 23.7444 135.668 23.2537 135.23 22.9032C134.792 22.5527 134.239 22.3774 133.573 22.3774C132.785 22.3774 132.136 22.6929 131.628 23.3238C131.12 23.9372 130.866 24.8398 130.866 26.0316C130.866 27.2234 131.12 28.1347 131.628 28.7656C132.136 29.3791 132.785 29.6858 133.573 29.6858C134.239 29.6858 134.792 29.5105 135.23 29.16C135.668 28.8095 135.957 28.3187 136.097 27.6878H140.856C140.523 29.5105 139.716 30.9476 138.437 31.9992C137.158 33.0332 135.571 33.5502 133.679 33.5502C132.241 33.5502 130.962 33.2523 129.84 32.6564C128.736 32.043 127.869 31.1667 127.238 30.0275C126.607 28.8883 126.291 27.5563 126.291 26.0316C126.291 24.4893 126.598 23.1573 127.212 22.0357C127.842 20.8965 128.719 20.0289 129.84 19.4331C130.962 18.8196 132.241 18.5129 133.679 18.5129Z" fill="white"/>
<path fill-rule="evenodd" clip-rule="evenodd" d="M38.1735 43.9628C34.386 45.1171 29.9519 45.3822 25.2123 45.3822C11.2879 45.3822 0 43.0945 0 22.6911C0 2.28772 11.2879 0 25.2123 0C39.1367 0 50.4247 2.28772 50.4247 22.6911C50.4247 28.8541 49.3948 33.3642 47.5734 36.6577L50.4255 47.9033L38.1735 43.9628Z" fill="white"/>
<path d="M16.6164 30.0362C16.1484 30.0362 15.8131 29.935 15.6107 29.7325C15.4084 29.5173 15.3072 29.1186 15.3072 28.5364C15.3072 28.144 15.3451 27.6441 15.421 27.0365C15.5096 26.4164 15.6487 25.5684 15.8384 24.4925C16.1673 22.5054 16.4267 20.7841 16.6164 19.3285C16.7303 18.4172 16.7872 17.6578 16.7872 17.0503C16.7872 16.4807 16.5785 16.1959 16.161 16.1959C15.8321 16.1959 15.4337 16.3668 14.9656 16.7085C14.5102 17.0376 14.0042 17.5692 13.4476 18.3033C13.2705 18.5438 13.0745 18.664 12.8594 18.664C12.6823 18.664 12.5242 18.5818 12.3851 18.4172C12.2586 18.24 12.1953 18.0438 12.1953 17.8287C12.1953 17.6262 12.2333 17.4236 12.3092 17.2211C12.3977 17.006 12.5369 16.7655 12.7266 16.4997C13.3338 15.6517 14.0106 14.9999 14.7569 14.5442C15.5032 14.0759 16.2496 13.8418 16.9959 13.8418C17.6916 13.8418 18.2229 14.0632 18.5898 14.5062C18.9693 14.9492 19.159 15.5947 19.159 16.4427C19.159 16.7845 19.1274 17.1895 19.0641 17.6578C19.0009 18.1135 18.944 18.4868 18.8934 18.7779C18.8428 19.069 18.8048 19.2716 18.7795 19.3855C19.5006 17.3224 20.3101 15.8858 21.2083 15.0758C22.1064 14.2531 23.0931 13.8418 24.1683 13.8418C24.9906 13.8418 25.6357 14.1329 26.1037 14.7151C26.5844 15.2973 26.8248 16.12 26.8248 17.1832C26.8248 17.6008 26.7678 18.1198 26.654 18.74C27.2865 16.9933 28.0265 15.7403 28.874 14.9809C29.7216 14.2215 30.6956 13.8418 31.7961 13.8418C32.6816 13.8418 33.3584 14.1265 33.8264 14.6961C34.3071 15.2657 34.5475 16.063 34.5475 17.0882C34.5475 17.6451 34.4652 18.3223 34.3008 19.1197L33.1433 24.5495C33.0168 25.1823 32.9536 25.7266 32.9536 26.1822C32.9536 26.7138 33.0738 27.1125 33.3141 27.3783C33.5671 27.6441 33.915 27.777 34.3577 27.777C34.7751 27.777 35.1799 27.6378 35.5721 27.3593C35.9769 27.0808 36.4512 26.6189 36.9952 25.9734C37.147 25.7962 37.3178 25.7076 37.5075 25.7076C37.6719 25.7076 37.7984 25.7835 37.887 25.9354C37.9882 26.0873 38.0388 26.2961 38.0388 26.5619C38.0388 27.0555 37.9186 27.4479 37.6783 27.739C37.0205 28.5364 36.369 29.1186 35.7239 29.4857C35.0787 29.8527 34.402 30.0362 33.6936 30.0362C32.6184 30.0362 31.7772 29.7198 31.17 29.087C30.5628 28.4415 30.2592 27.5808 30.2592 26.505C30.2592 25.7582 30.411 24.676 30.7146 23.2585L31.4736 19.7842C31.4989 19.6702 31.5431 19.4677 31.6064 19.1766C31.6696 18.8855 31.7202 18.6134 31.7582 18.3603C31.7961 18.0945 31.8151 17.835 31.8151 17.5819C31.8151 17.1389 31.7266 16.8098 31.5495 16.5946C31.385 16.3668 31.1447 16.2529 30.8284 16.2529C30.2339 16.2529 29.6077 16.6389 28.9499 17.411C28.3048 18.1704 27.685 19.4361 27.0904 21.2081C26.5085 22.98 26.0342 25.2836 25.6673 28.1187C25.5788 28.8781 25.4206 29.3907 25.1929 29.6565C24.9779 29.9097 24.6237 30.0362 24.1304 30.0362C23.7003 30.0362 23.384 29.935 23.1816 29.7325C22.9919 29.53 22.897 29.1502 22.897 28.5933C22.897 28.0744 22.9666 27.3973 23.1057 26.5619C23.2449 25.7139 23.422 24.7203 23.637 23.5812C24.2189 20.5183 24.5099 18.5438 24.5099 17.6578C24.5099 17.1768 24.415 16.8224 24.2252 16.5946C24.0481 16.3668 23.7762 16.2529 23.4093 16.2529C22.7895 16.2529 22.1507 16.6073 21.4929 17.3161C20.8351 18.0122 20.19 19.2589 19.5575 21.0562C18.9376 22.8408 18.419 25.2583 18.0016 28.3086C17.913 28.9541 17.7802 29.4034 17.6031 29.6565C17.4386 29.9097 17.1097 30.0362 16.6164 30.0362Z" fill="#212162"/>
</svg>
