<svg xmlns="http://www.w3.org/2000/svg" width="1435" height="1506" viewBox="0 0 1435 1506" fill="none"><g clip-path="url(#clip0)"><rect width="1435" height="1506" fill="#F6F7FB"></rect><g filter="url(#filter0_f)"><circle cx="1081.5" cy="840.5" r="528.5" fill="#3A3892" fill-opacity="0.2"></circle></g><circle cx="1007.5" cy="757.5" r="528.5" fill="#F6F7FB"></circle><circle cx="1007.5" cy="757.5" r="398.5" stroke="#B7BCFD" stroke-opacity="0.75" stroke-width="5" stroke-linecap="round" stroke-linejoin="round" stroke-dasharray="0.3 30"></circle><g filter="url(#filter1_f)"><rect x="865" y="637" width="475" height="475" rx="150" fill="#DADAEC"></rect></g><g filter="url(#filter2_f)"><rect x="728" y="476" width="475" height="475" rx="150" fill="white"></rect></g><path d="M1154 804C1737.42 804 1502.42 211 2087 211" stroke="url(#paint0_linear)" stroke-opacity="0.5" stroke-width="100"></path><path d="M1153.84 776C1613.58 776 1428.4 1219 1889.05 1219" stroke="url(#paint1_linear)" stroke-opacity="0.5" stroke-width="150"></path><path d="M1108 742C1581.54 742 1390.8 211 1865.28 211" stroke="url(#paint2_linear)" stroke-opacity="0.5" stroke-width="100"></path><path d="M1153.84 798.474C1922.54 798.474 1612.92 1388 2383.15 1388" stroke="url(#paint3_linear)" stroke-opacity="0.5" stroke-width="100"></path><path d="M1153.84 776C1922.54 776 1612.92 932 2383.15 932" stroke="url(#paint4_linear)" stroke-opacity="0.5" stroke-width="75"></path><path d="M892 789C334.222 789 558.892 1320 -4.42266e-05 1320" stroke="url(#paint5_linear)" stroke-opacity="0.5" stroke-width="100"></path><path d="M796 725C298.252 725 498.742 1044 -6.73532e-06 1044" stroke="url(#paint6_linear)" stroke-opacity="0.5" stroke-width="50"></path><path d="M838 732.526C-67.452 732.526 297.26 143 -610 143" stroke="url(#paint7_linear)" stroke-opacity="0.5" stroke-width="100"></path><path d="M838 755C-67.452 755 297.26 599 -610 599" stroke="url(#paint8_linear)" stroke-opacity="0.5" stroke-width="75"></path><path d="M838 727C-188.137 727 225.186 1319.7 -803 1319.7" stroke="url(#paint9_linear)" stroke-opacity="0.5" stroke-width="100"></path><path d="M838 755C296.48 755 514.602 312 -28 312" stroke="url(#paint10_linear)" stroke-opacity="0.5" stroke-width="150"></path><path d="M-2.7627 205.5H900.237L792.5 857.5L387 1239L284.5 1309L164.237 1359.5L-2.7627 1373.5V205.5Z" fill="url(#paint11_linear)"></path><rect x="767" y="520" width="475" height="475" rx="150" fill="#F6F7FB"></rect><path fill-rule="evenodd" clip-rule="evenodd" d="M1062.29 847.644C1045.4 852.791 1025.63 853.973 1004.5 853.973C942.41 853.973 892.078 843.772 892.078 752.795C892.078 661.818 942.41 651.617 1004.5 651.617C1066.59 651.617 1116.92 661.818 1116.92 752.795C1116.92 780.276 1112.33 800.387 1104.2 815.072L1116.92 865.214L1062.29 847.644Z" fill="url(#paint12_linear)"></path><g filter="url(#filter3_i)"><path fill-rule="evenodd" clip-rule="evenodd" d="M1062.29 847.644C1045.4 852.791 1025.63 853.973 1004.5 853.973C942.41 853.973 892.078 843.772 892.078 752.795C892.078 661.818 942.41 651.617 1004.5 651.617C1066.59 651.617 1116.92 661.818 1116.92 752.795C1116.92 780.276 1112.33 800.387 1104.2 815.072L1116.92 865.214L1062.29 847.644Z" fill="black" fill-opacity="0.01"></path></g><g filter="url(#filter4_i)"><path fill-rule="evenodd" clip-rule="evenodd" d="M1062.29 847.644C1045.4 852.791 1025.63 853.973 1004.5 853.973C942.41 853.973 892.078 843.772 892.078 752.795C892.078 661.818 942.41 651.617 1004.5 651.617C1066.59 651.617 1116.92 661.818 1116.92 752.795C1116.92 780.276 1112.33 800.387 1104.2 815.072L1116.92 865.214L1062.29 847.644Z" fill="white" fill-opacity="0.01"></path></g><g filter="url(#filter5_d)"><path d="M966.161 785.546C964.074 785.546 962.579 785.094 961.676 784.191C960.774 783.232 960.323 781.454 960.323 778.858C960.323 777.109 960.492 774.879 960.83 772.17C961.225 769.405 961.846 765.624 962.692 760.827C964.158 751.966 965.315 744.291 966.161 737.801C966.668 733.737 966.922 730.351 966.922 727.642C966.922 725.103 965.991 723.833 964.13 723.833C962.664 723.833 960.887 724.595 958.8 726.118C956.769 727.586 954.513 729.956 952.031 733.229C951.242 734.302 950.367 734.838 949.408 734.838C948.619 734.838 947.914 734.471 947.293 733.737C946.729 732.947 946.447 732.072 946.447 731.113C946.447 730.21 946.616 729.307 946.955 728.404C947.35 727.445 947.97 726.372 948.816 725.187C951.524 721.406 954.541 718.5 957.869 716.468C961.197 714.38 964.525 713.336 967.853 713.336C970.955 713.336 973.324 714.323 974.96 716.299C976.652 718.274 977.498 721.152 977.498 724.933C977.498 726.457 977.357 728.263 977.075 730.351C976.793 732.383 976.539 734.048 976.313 735.346C976.088 736.644 975.919 737.547 975.806 738.055C979.021 728.856 982.631 722.45 986.635 718.838C990.64 715.17 995.04 713.336 999.834 713.336C1003.5 713.336 1006.38 714.634 1008.46 717.23C1010.61 719.826 1011.68 723.494 1011.68 728.235C1011.68 730.097 1011.43 732.411 1010.92 735.176C1013.74 727.388 1017.04 721.801 1020.82 718.415C1024.6 715.029 1028.94 713.336 1033.85 713.336C1037.79 713.336 1040.81 714.606 1042.9 717.145C1045.04 719.685 1046.11 723.24 1046.11 727.812C1046.11 730.295 1045.75 733.314 1045.01 736.87L1039.85 761.081C1039.29 763.902 1039.01 766.329 1039.01 768.361C1039.01 770.731 1039.54 772.509 1040.61 773.694C1041.74 774.879 1043.29 775.472 1045.27 775.472C1047.13 775.472 1048.93 774.851 1050.68 773.609C1052.49 772.368 1054.6 770.308 1057.03 767.43C1057.7 766.64 1058.47 766.245 1059.31 766.245C1060.05 766.245 1060.61 766.583 1061 767.26C1061.46 767.938 1061.68 768.869 1061.68 770.054C1061.68 772.255 1061.15 774.005 1060.07 775.303C1057.14 778.858 1054.24 781.454 1051.36 783.091C1048.48 784.727 1045.47 785.546 1042.31 785.546C1037.51 785.546 1033.76 784.135 1031.05 781.313C1028.35 778.435 1026.99 774.597 1026.99 769.8C1026.99 766.47 1027.67 761.645 1029.02 755.324L1032.41 739.832C1032.52 739.325 1032.72 738.422 1033 737.124C1033.28 735.825 1033.51 734.612 1033.68 733.483C1033.85 732.298 1033.93 731.141 1033.93 730.013C1033.93 728.037 1033.54 726.57 1032.75 725.611C1032.01 724.595 1030.94 724.087 1029.53 724.087C1026.88 724.087 1024.09 725.808 1021.15 729.251C1018.28 732.637 1015.51 738.28 1012.86 746.182C1010.27 754.083 1008.15 764.354 1006.52 776.996C1006.12 780.382 1005.42 782.667 1004.4 783.853C1003.44 784.981 1001.86 785.546 999.665 785.546C997.747 785.546 996.337 785.094 995.434 784.191C994.588 783.288 994.165 781.595 994.165 779.112C994.165 776.798 994.476 773.779 995.096 770.054C995.717 766.273 996.506 761.843 997.465 756.763C1000.06 743.106 1001.36 734.302 1001.36 730.351C1001.36 728.207 1000.93 726.626 1000.09 725.611C999.298 724.595 998.086 724.087 996.45 724.087C993.686 724.087 990.838 725.667 987.905 728.827C984.971 731.931 982.095 737.49 979.275 745.504C976.511 753.462 974.198 764.241 972.337 777.842C971.942 780.72 971.35 782.724 970.56 783.853C969.827 784.981 968.36 785.546 966.161 785.546Z" fill="white" fill-opacity="0.01"></path></g><path d="M966.161 785.546C964.074 785.546 962.579 785.094 961.676 784.191C960.774 783.232 960.323 781.454 960.323 778.858C960.323 777.109 960.492 774.879 960.83 772.17C961.225 769.405 961.846 765.624 962.692 760.827C964.158 751.966 965.315 744.291 966.161 737.801C966.668 733.737 966.922 730.351 966.922 727.642C966.922 725.103 965.991 723.833 964.13 723.833C962.664 723.833 960.887 724.595 958.8 726.118C956.769 727.586 954.513 729.956 952.031 733.229C951.242 734.302 950.367 734.838 949.408 734.838C948.619 734.838 947.914 734.471 947.293 733.737C946.729 732.947 946.447 732.072 946.447 731.113C946.447 730.21 946.616 729.307 946.955 728.404C947.35 727.445 947.97 726.372 948.816 725.187C951.524 721.406 954.541 718.5 957.869 716.468C961.197 714.38 964.525 713.336 967.853 713.336C970.955 713.336 973.324 714.323 974.96 716.299C976.652 718.274 977.498 721.152 977.498 724.933C977.498 726.457 977.357 728.263 977.075 730.351C976.793 732.383 976.539 734.048 976.313 735.346C976.088 736.644 975.919 737.547 975.806 738.055C979.021 728.856 982.631 722.45 986.635 718.838C990.64 715.17 995.04 713.336 999.834 713.336C1003.5 713.336 1006.38 714.634 1008.46 717.23C1010.61 719.826 1011.68 723.494 1011.68 728.235C1011.68 730.097 1011.43 732.411 1010.92 735.176C1013.74 727.388 1017.04 721.801 1020.82 718.415C1024.6 715.029 1028.94 713.336 1033.85 713.336C1037.79 713.336 1040.81 714.606 1042.9 717.145C1045.04 719.685 1046.11 723.24 1046.11 727.812C1046.11 730.295 1045.75 733.314 1045.01 736.87L1039.85 761.081C1039.29 763.902 1039.01 766.329 1039.01 768.361C1039.01 770.731 1039.54 772.509 1040.61 773.694C1041.74 774.879 1043.29 775.472 1045.27 775.472C1047.13 775.472 1048.93 774.851 1050.68 773.609C1052.49 772.368 1054.6 770.308 1057.03 767.43C1057.7 766.64 1058.47 766.245 1059.31 766.245C1060.05 766.245 1060.61 766.583 1061 767.26C1061.46 767.938 1061.68 768.869 1061.68 770.054C1061.68 772.255 1061.15 774.005 1060.07 775.303C1057.14 778.858 1054.24 781.454 1051.36 783.091C1048.48 784.727 1045.47 785.546 1042.31 785.546C1037.51 785.546 1033.76 784.135 1031.05 781.313C1028.35 778.435 1026.99 774.597 1026.99 769.8C1026.99 766.47 1027.67 761.645 1029.02 755.324L1032.41 739.832C1032.52 739.325 1032.72 738.422 1033 737.124C1033.28 735.825 1033.51 734.612 1033.68 733.483C1033.85 732.298 1033.93 731.141 1033.93 730.013C1033.93 728.037 1033.54 726.57 1032.75 725.611C1032.01 724.595 1030.94 724.087 1029.53 724.087C1026.88 724.087 1024.09 725.808 1021.15 729.251C1018.28 732.637 1015.51 738.28 1012.86 746.182C1010.27 754.083 1008.15 764.354 1006.52 776.996C1006.12 780.382 1005.42 782.667 1004.4 783.853C1003.44 784.981 1001.86 785.546 999.665 785.546C997.747 785.546 996.337 785.094 995.434 784.191C994.588 783.288 994.165 781.595 994.165 779.112C994.165 776.798 994.476 773.779 995.096 770.054C995.717 766.273 996.506 761.843 997.465 756.763C1000.06 743.106 1001.36 734.302 1001.36 730.351C1001.36 728.207 1000.93 726.626 1000.09 725.611C999.298 724.595 998.086 724.087 996.45 724.087C993.686 724.087 990.838 725.667 987.905 728.827C984.971 731.931 982.095 737.49 979.275 745.504C976.511 753.462 974.198 764.241 972.337 777.842C971.942 780.72 971.35 782.724 970.56 783.853C969.827 784.981 968.36 785.546 966.161 785.546Z" fill="white"></path></g><defs><filter id="filter0_f" x="438" y="197" width="1287" height="1287" filterUnits="userSpaceOnUse" color-interpolation-filters="sRGB"><feGaussianBlur stdDeviation="57.5"></feGaussianBlur></filter><filter id="filter1_f" x="750" y="522" width="705" height="705" filterUnits="userSpaceOnUse" color-interpolation-filters="sRGB"><feGaussianBlur stdDeviation="57.5"></feGaussianBlur></filter><filter id="filter2_f" x="687.048" y="435.048" width="556.904" height="556.904" filterUnits="userSpaceOnUse" color-interpolation-filters="sRGB"><feGaussianBlur stdDeviation="20.4759"></feGaussianBlur></filter><filter id="filter3_i" x="892.078" y="651.617" width="227.843" height="216.597" filterUnits="userSpaceOnUse" color-interpolation-filters="sRGB"><feGaussianBlur stdDeviation="5"></feGaussianBlur></filter><filter id="filter4_i" x="889.078" y="648.617" width="227.843" height="216.597" filterUnits="userSpaceOnUse" color-interpolation-filters="sRGB"><feGaussianBlur stdDeviation="5"></feGaussianBlur></filter><filter id="filter5_d" x="941.447" y="712.336" width="133.234" height="90.21" filterUnits="userSpaceOnUse" color-interpolation-filters="sRGB"><feGaussianBlur stdDeviation="4.5"></feGaussianBlur></filter><linearGradient id="paint0_linear" x1="1154" y1="354.904" x2="2087" y2="354.904" gradientUnits="userSpaceOnUse"><stop stop-color="#1791FA"></stop><stop offset="1" stop-color="#8D0FFF"></stop></linearGradient><linearGradient id="paint1_linear" x1="1153.84" y1="1111.5" x2="1889.05" y2="1111.5" gradientUnits="userSpaceOnUse"><stop offset="0.244792" stop-color="#6768E2"></stop><stop offset="1" stop-color="#F40896"></stop></linearGradient><linearGradient id="paint2_linear" x1="1108" y1="339.858" x2="1865.28" y2="339.858" gradientUnits="userSpaceOnUse"><stop stop-color="#F40896"></stop><stop offset="0.421875" stop-color="#6768E2"></stop></linearGradient><linearGradient id="paint3_linear" x1="1153.84" y1="1244.94" x2="2383.15" y2="1244.94" gradientUnits="userSpaceOnUse"><stop stop-color="#6768E2"></stop><stop offset="1" stop-color="#F40896"></stop></linearGradient><linearGradient id="paint4_linear" x1="1153.84" y1="894.143" x2="2383.15" y2="894.143" gradientUnits="userSpaceOnUse"><stop stop-color="#24C7DB"></stop><stop offset="1" stop-color="#FFD422"></stop></linearGradient><linearGradient id="paint5_linear" x1="892" y1="1191.14" x2="0" y2="1191.14" gradientUnits="userSpaceOnUse"><stop stop-color="#F40896"></stop><stop offset="0.421875" stop-color="#6768E2"></stop></linearGradient><linearGradient id="paint6_linear" x1="796" y1="966.588" x2="0" y2="966.588" gradientUnits="userSpaceOnUse"><stop stop-color="#24C7DB"></stop><stop offset="1" stop-color="#FFD422"></stop></linearGradient><linearGradient id="paint7_linear" x1="838" y1="286.061" x2="-610" y2="286.061" gradientUnits="userSpaceOnUse"><stop stop-color="#6768E2"></stop><stop offset="1" stop-color="#F40896"></stop></linearGradient><linearGradient id="paint8_linear" x1="838" y1="636.857" x2="-610" y2="636.857" gradientUnits="userSpaceOnUse"><stop stop-color="#24C7DB"></stop><stop offset="1" stop-color="#FFD422"></stop></linearGradient><linearGradient id="paint9_linear" x1="838" y1="1175.87" x2="-803" y2="1175.87" gradientUnits="userSpaceOnUse"><stop stop-color="#1791FA"></stop><stop offset="1" stop-color="#8D0FFF"></stop></linearGradient><linearGradient id="paint10_linear" x1="838" y1="419.503" x2="-28" y2="419.503" gradientUnits="userSpaceOnUse"><stop stop-color="#24C7DB"></stop><stop offset="1" stop-color="#FFD422"></stop></linearGradient><linearGradient id="paint11_linear" x1="-5" y1="657.058" x2="898" y2="657.058" gradientUnits="userSpaceOnUse"><stop stop-color="#F6F7FB"></stop><stop offset="1" stop-color="#F6F7FB" stop-opacity="0"></stop></linearGradient><linearGradient id="paint12_linear" x1="922.84" y1="671.193" x2="1116.92" y2="865.274" gradientUnits="userSpaceOnUse"><stop stop-opacity="0.65"></stop><stop offset="0.640625"></stop></linearGradient><clipPath id="clip0"><rect width="1435" height="1506" fill="white"></rect></clipPath></defs></svg>