<svg xmlns="http://www.w3.org/2000/svg" width="104" height="25" viewBox="0 0 104 25" fill="none"><path d="M19.1969 0.492725C17.225 0.500917 15.2634 1.53619 14.2843 3.59794L13.832 4.54961V12.4132V20.2768L14.2843 21.2284C14.9863 22.7066 16.0728 23.6398 17.7012 24.1549C18.8682 24.5241 20.7285 24.3296 21.9151 23.7171C22.6848 23.3198 23.7741 22.1369 24.1945 21.2418L24.5796 20.4197V12.4132V4.40664L24.1587 3.55773C23.1481 1.50424 21.1688 0.484535 19.1969 0.492725ZM19.2864 4.38877C19.3577 4.3892 19.4291 4.39625 19.4969 4.41111C19.7243 4.46094 20.1035 4.72397 20.3433 4.99641L20.7821 5.49235V12.3774V19.2625L20.4597 19.7317C20.2824 19.9909 19.9493 20.2684 19.7208 20.3482C19.4923 20.4281 19.2344 20.4924 19.1476 20.4912C18.8023 20.4866 18.2662 20.1055 17.9564 19.6468L17.6295 19.1642V12.431C17.63 6.00399 17.6402 5.67452 17.9072 5.23768C18.2229 4.72102 18.7872 4.38542 19.2864 4.38877Z" fill="#212162"></path><path d="M64.376 24.0802C62.7149 23.4655 61.6237 22.4066 60.9949 20.7992C60.7736 20.2335 60.7514 19.2782 60.7553 10.505L60.7595 0.834442L62.695 0.794662L64.6305 0.754883L64.6327 10.0165C64.6343 17.1736 64.6758 19.3593 64.8152 19.6355C64.9144 19.8321 65.2237 20.1156 65.5024 20.2655C66.1286 20.6023 66.6534 20.4988 67.2283 19.9251L67.6399 19.5145V10.1347V0.754883L69.5768 0.794662L71.5137 0.834442L71.5133 10.5104C71.5128 19.9659 71.506 20.2046 71.2142 20.9828C70.7926 22.107 69.7172 23.2355 68.5219 23.808C67.2756 24.4048 65.558 24.5176 64.376 24.0802Z" fill="#212162"></path><path d="M0.288086 12.4141V0.761719H5.08867H9.88926V2.76336V4.76499H7.09489H4.30052V7.48888V10.2128L6.05595 10.1884L7.81139 10.1641L7.85126 12.1112L7.89113 14.0583H6.09582H4.30052V19.0624V24.0665H2.2943H0.288086V12.4141Z" fill="#212162"></path><path d="M29.9512 12.4151V0.762695H32.9304C36.1745 0.762695 37.0624 0.896743 38.1916 1.55694C39.0433 2.05496 39.9335 3.05624 40.3864 4.02563C40.7528 4.80986 40.7673 4.94049 40.814 7.86852C40.8528 10.3052 40.8171 11.0755 40.6319 11.7968C40.3645 12.8381 39.8772 13.7257 39.2039 14.3974L38.7279 14.8724L39.984 19.1642C40.6748 21.5246 41.2838 23.5936 41.3373 23.7617C41.4336 24.0645 41.4141 24.0675 39.3666 24.0675H37.2987L36.6968 21.7442C36.0971 19.4289 34.5658 13.6285 34.4359 13.1799C34.3866 13.01 34.4867 12.9178 34.7936 12.8506C35.3621 12.726 36.3892 11.8318 36.6333 11.2488C36.775 10.9105 36.8296 10.0597 36.8296 8.19095V5.60182L36.4107 5.1839C36.0215 4.79552 35.9151 4.76597 34.9061 4.76597H33.8203V14.4167V24.0675H31.8857H29.9512V12.4151Z" fill="#212162"></path><path d="M48.7226 23.9603C48.7218 23.9013 48.7057 19.5745 48.6868 14.3453L48.6525 4.83746L46.897 4.79731L45.1416 4.75717V2.75993V0.762695H50.587H56.0325V2.76434V4.76597H54.3129H52.5933V14.4167V24.0675H50.6587C49.5947 24.0675 48.7235 24.0192 48.7226 23.9603Z" fill="#212162"></path><path d="M76.668 12.4153V0.762955H78.6446H80.6212L80.7738 1.29911C80.8578 1.59399 81.5104 3.6689 82.2241 5.91002C82.9378 8.15114 83.7258 10.6442 83.9751 11.4502C84.2245 12.2563 84.4893 12.9157 84.5636 12.9157C84.6462 12.9157 84.6951 10.569 84.6895 6.8751L84.6803 0.834442L86.6211 0.794662L88.562 0.754883V12.4113V24.0677H86.3705H84.1791L83.7688 22.7452C83.5431 22.0178 83.1456 20.7563 82.8855 19.9419C82.6253 19.1274 82.044 17.2777 81.5937 15.8314C81.1433 14.385 80.7214 13.2017 80.656 13.2017C80.5906 13.2017 80.5371 15.6465 80.5371 18.6347V24.0677H78.6025H76.668V12.4153Z" fill="#212162"></path><path d="M93.7207 12.4151V0.762695H98.5213H103.322V2.76434V4.76597H100.453H97.5835L97.6225 7.44674L97.6615 10.1275H99.4887H101.316V12.0934V14.0593H99.4528H97.5898V17.0618V20.0642H100.456H103.322V22.0659V24.0675H98.5213H93.7207V12.4151Z" fill="#212162"></path></svg>