<svg xmlns="http://www.w3.org/2000/svg" width="120" height="161" viewBox="0 0 120 161" fill="none"><g opacity="0.15" filter="url(#filter0_f)"><path fill-rule="evenodd" clip-rule="evenodd" d="M59.6859 42.3333C56.956 42.3333 54.6142 44.2797 54.1149 46.9635L52.8751 53.6273C56.645 52.1879 60.7345 51.4 65 51.4C69.2701 51.4 73.3582 52.1887 77.1249 53.6271L75.8851 46.9635C75.3858 44.2797 73.0439 42.3333 70.314 42.3333H59.6859ZM90.348 62.7396L87.0273 44.8906C85.5293 36.8391 78.5037 31 70.314 31L59.6859 31C51.4963 31 44.4707 36.8391 42.9727 44.8906L40.6899 57.1607C39.9242 61.2763 42.4214 64.311 44.7029 65.6738C46.9612 67.0226 50.4222 67.6639 53.5684 65.8218C56.9198 63.8597 60.8198 62.7333 65 62.7333C71.2797 62.7333 76.954 65.2795 81.0651 69.4097C85.1511 73.5147 87.6667 79.1581 87.6667 85.4C87.6667 91.6419 85.1511 97.2853 81.0651 101.39C76.954 105.52 71.2797 108.067 65 108.067C58.7203 108.067 53.046 105.52 48.9349 101.39C44.8489 97.2853 42.3333 91.6419 42.3333 85.4C42.3333 82.4753 42.8849 79.6861 43.8894 77.1255C44.8979 74.5548 44.3612 71.4554 42.0746 69.9071L36.8305 66.3561C33.15 71.7913 31 78.3531 31 85.4C31 94.1029 34.2763 102.05 39.652 108.06L42.9727 125.909C44.4707 133.961 51.4963 139.8 59.6859 139.8H70.314C78.5037 139.8 85.5293 133.961 87.0272 125.909L90.348 108.06C95.7237 102.05 99 94.1029 99 85.4C99 76.6971 95.7237 68.75 90.348 62.7396ZM77.1249 117.173C73.3582 118.611 69.2701 119.4 65 119.4C60.7299 119.4 56.6418 118.611 52.8751 117.173L54.1149 123.836C54.6142 126.52 56.9561 128.467 59.6859 128.467H70.314C73.0439 128.467 75.3858 126.52 75.8851 123.836L77.1249 117.173Z" fill="#616589"></path><path d="M30.5 85.4C30.5 94.1801 33.7869 102.203 39.1859 108.289L42.4812 126.001C44.0232 134.289 51.2554 140.3 59.6859 140.3H70.314C78.7446 140.3 85.9768 134.289 87.5188 126.001L90.8141 108.289C96.213 102.203 99.5 94.1801 99.5 85.4C99.5 76.6198 96.2131 68.597 90.8141 62.5111L87.5188 44.7991C85.9768 36.5108 78.7446 30.5 70.314 30.5L59.6859 30.5C51.2554 30.5 44.0232 36.5108 42.4812 44.7991L40.1984 57.0692C39.382 61.4571 42.0515 64.6725 44.4466 66.103C46.8198 67.5205 50.4796 68.2096 53.8211 66.2533C57.0979 64.3348 60.9109 63.2333 65 63.2333C71.1414 63.2333 76.6897 65.7227 80.7107 69.7624C84.7072 73.7775 87.1667 79.2955 87.1667 85.4C87.1667 91.5044 84.7072 97.0225 80.7107 101.038C76.6897 105.077 71.1414 107.567 65 107.567C58.8586 107.567 53.3103 105.077 49.2893 101.038C45.2928 97.0225 42.8333 91.5044 42.8333 85.4C42.8333 82.5387 43.3728 79.8113 44.3549 77.3081C45.4237 74.5836 44.8867 71.2075 42.355 69.4931L37.1108 65.942L36.6968 65.6617L36.4165 66.0757C32.6817 71.5911 30.5 78.2501 30.5 85.4ZM54.6064 47.055C55.0617 44.6079 57.1969 42.8333 59.6859 42.8333H70.314C72.8031 42.8333 74.9383 44.608 75.3936 47.055L76.4726 52.8551C72.8823 51.5892 69.0202 50.9 65 50.9C60.9838 50.9 57.1206 51.5886 53.5273 52.8553L54.6064 47.055ZM65 119.9C69.0202 119.9 72.8823 119.211 76.4726 117.945L75.3935 123.745C74.9383 126.192 72.8031 127.967 70.314 127.967H59.6859C57.1969 127.967 55.0617 126.192 54.6064 123.745L53.5273 117.945C57.1176 119.211 60.9798 119.9 65 119.9Z" stroke="white"></path></g><g filter="url(#filter1_f)"><path fill-rule="evenodd" clip-rule="evenodd" d="M39.6859 22.3333C36.956 22.3333 34.6142 24.2797 34.1149 26.9635L32.8751 33.6273C36.645 32.1879 40.7345 31.4 45 31.4C49.2701 31.4 53.3582 32.1887 57.1249 33.6271L55.8851 26.9635C55.3858 24.2797 53.0439 22.3333 50.314 22.3333H39.6859ZM70.348 42.7396L67.0273 24.8906C65.5293 16.8391 58.5037 11 50.314 11L39.6859 11C31.4963 11 24.4707 16.8391 22.9727 24.8906L20.6899 37.1607C19.9242 41.2763 22.4214 44.311 24.7029 45.6738C26.9612 47.0226 30.4222 47.6639 33.5684 45.8218C36.9198 43.8597 40.8198 42.7333 45 42.7333C51.2797 42.7333 56.954 45.2795 61.0651 49.4097C65.1511 53.5147 67.6667 59.1581 67.6667 65.4C67.6667 71.6419 65.1511 77.2853 61.0651 81.3903C56.954 85.5204 51.2797 88.0666 45 88.0666C38.7203 88.0666 33.046 85.5204 28.9349 81.3903C24.8489 77.2853 22.3333 71.6419 22.3333 65.4C22.3333 62.4753 22.8849 59.6861 23.8894 57.1255C24.8979 54.5548 24.3612 51.4554 22.0746 49.9071L16.8305 46.3561C13.15 51.7913 11 58.3531 11 65.4C11 74.1029 14.2763 82.05 19.652 88.0604L22.9727 105.909C24.4707 113.961 31.4963 119.8 39.6859 119.8H50.314C58.5037 119.8 65.5293 113.961 67.0272 105.909L70.348 88.0604C75.7237 82.05 79 74.1029 79 65.4C79 56.6971 75.7237 48.75 70.348 42.7396ZM57.1249 97.1728C53.3582 98.6113 49.2701 99.4 45 99.4C40.7299 99.4 36.6418 98.6113 32.8751 97.1728L34.1149 103.836C34.6142 106.52 36.9561 108.467 39.6859 108.467H50.314C53.0439 108.467 55.3858 106.52 55.8851 103.836L57.1249 97.1728Z" fill="white"></path><path d="M10.5 65.4C10.5 74.1801 13.7869 82.203 19.1859 88.2889L22.4812 106.001C24.0232 114.289 31.2554 120.3 39.6859 120.3H50.314C58.7446 120.3 65.9768 114.289 67.5188 106.001L70.8141 88.2889C76.213 82.203 79.5 74.1801 79.5 65.4C79.5 56.6198 76.2131 48.597 70.8141 42.5111L67.5188 24.7991C65.9768 16.5108 58.7446 10.5 50.314 10.5L39.6859 10.5C31.2554 10.5 24.0232 16.5108 22.4812 24.7991L20.1984 37.0692C19.382 41.4571 22.0515 44.6725 24.4466 46.103C26.8198 47.5205 30.4796 48.2096 33.8211 46.2533C37.0979 44.3348 40.9109 43.2333 45 43.2333C51.1414 43.2333 56.6897 45.7227 60.7107 49.7624C64.7072 53.7775 67.1667 59.2955 67.1667 65.4C67.1667 71.5044 64.7072 77.0225 60.7107 81.0376C56.6897 85.0772 51.1414 87.5667 45 87.5667C38.8586 87.5667 33.3103 85.0772 29.2893 81.0376C25.2928 77.0225 22.8333 71.5044 22.8333 65.4C22.8333 62.5387 23.3728 59.8113 24.3549 57.3081C25.4237 54.5836 24.8867 51.2075 22.355 49.4931L17.1108 45.942L16.6968 45.6617L16.4165 46.0757C12.6817 51.5911 10.5 58.2501 10.5 65.4ZM34.6064 27.055C35.0617 24.6079 37.1969 22.8333 39.6859 22.8333H50.314C52.8031 22.8333 54.9383 24.608 55.3936 27.055L56.4726 32.8551C52.8823 31.5892 49.0202 30.9 45 30.9C40.9838 30.9 37.1206 31.5886 33.5273 32.8553L34.6064 27.055ZM45 99.9C49.0202 99.9 52.8823 99.2108 56.4726 97.9449L55.3935 103.745C54.9383 106.192 52.8031 107.967 50.314 107.967H39.6859C37.1969 107.967 35.0617 106.192 34.6064 103.745L33.5273 97.9449C37.1176 99.2108 40.9798 99.9 45 99.9Z" stroke="white"></path></g><path d="M20.5 75.4C20.5 84.1801 23.7869 92.203 29.1859 98.2889L32.4812 116.001C34.0232 124.289 41.2554 130.3 49.6859 130.3H60.314C68.7446 130.3 75.9768 124.289 77.5188 116.001L80.8141 98.2889C86.213 92.203 89.5 84.1801 89.5 75.4C89.5 66.6198 86.2131 58.597 80.8141 52.5111L77.5188 34.7991C75.9768 26.5108 68.7446 20.5 60.314 20.5L49.6859 20.5C41.2554 20.5 34.0232 26.5108 32.4812 34.7991L30.1984 47.0692C29.382 51.4571 32.0515 54.6725 34.4466 56.103C36.8198 57.5205 40.4796 58.2096 43.8211 56.2533C47.0979 54.3348 50.9109 53.2333 55 53.2333C61.1414 53.2333 66.6897 55.7227 70.7107 59.7624C74.7072 63.7775 77.1667 69.2955 77.1667 75.4C77.1667 81.5044 74.7072 87.0225 70.7107 91.0376C66.6897 95.0772 61.1414 97.5667 55 97.5667C48.8586 97.5667 43.3103 95.0772 39.2893 91.0376C35.2928 87.0225 32.8333 81.5044 32.8333 75.4C32.8333 72.5387 33.3728 69.8113 34.3549 67.3081C35.4237 64.5836 34.8867 61.2075 32.355 59.4931L27.1108 55.942L26.6968 55.6617L26.4165 56.0757C22.6817 61.5911 20.5 68.2501 20.5 75.4ZM44.6064 37.055C45.0617 34.6079 47.1969 32.8333 49.6859 32.8333H60.314C62.8031 32.8333 64.9383 34.608 65.3936 37.055L66.4726 42.8551C62.8823 41.5892 59.0202 40.9 55 40.9C50.9838 40.9 47.1206 41.5886 43.5273 42.8553L44.6064 37.055ZM55 109.9C59.0202 109.9 62.8823 109.211 66.4726 107.945L65.3935 113.745C64.9383 116.192 62.8031 117.967 60.314 117.967H49.6859C47.1969 117.967 45.0617 116.192 44.6064 113.745L43.5273 107.945C47.1176 109.211 50.9798 109.9 55 109.9Z" fill="#F6F7FB"></path><path d="M20.5 75.4C20.5 84.1801 23.7869 92.203 29.1859 98.2889L32.4812 116.001C34.0232 124.289 41.2554 130.3 49.6859 130.3H60.314C68.7446 130.3 75.9768 124.289 77.5188 116.001L80.8141 98.2889C86.213 92.203 89.5 84.1801 89.5 75.4C89.5 66.6198 86.2131 58.597 80.8141 52.5111L77.5188 34.7991C75.9768 26.5108 68.7446 20.5 60.314 20.5L49.6859 20.5C41.2554 20.5 34.0232 26.5108 32.4812 34.7991L30.1984 47.0692C29.382 51.4571 32.0515 54.6725 34.4466 56.103C36.8198 57.5205 40.4796 58.2096 43.8211 56.2533C47.0979 54.3348 50.9109 53.2333 55 53.2333C61.1414 53.2333 66.6897 55.7227 70.7107 59.7624C74.7072 63.7775 77.1667 69.2955 77.1667 75.4C77.1667 81.5044 74.7072 87.0225 70.7107 91.0376C66.6897 95.0772 61.1414 97.5667 55 97.5667C48.8586 97.5667 43.3103 95.0772 39.2893 91.0376C35.2928 87.0225 32.8333 81.5044 32.8333 75.4C32.8333 72.5387 33.3728 69.8113 34.3549 67.3081C35.4237 64.5836 34.8867 61.2075 32.355 59.4931L27.1108 55.942L26.6968 55.6617L26.4165 56.0757C22.6817 61.5911 20.5 68.2501 20.5 75.4ZM44.6064 37.055C45.0617 34.6079 47.1969 32.8333 49.6859 32.8333H60.314C62.8031 32.8333 64.9383 34.608 65.3936 37.055L66.4726 42.8551C62.8823 41.5892 59.0202 40.9 55 40.9C50.9838 40.9 47.1206 41.5886 43.5273 42.8553L44.6064 37.055ZM55 109.9C59.0202 109.9 62.8823 109.211 66.4726 107.945L65.3935 113.745C64.9383 116.192 62.8031 117.967 60.314 117.967H49.6859C47.1969 117.967 45.0617 116.192 44.6064 113.745L43.5273 107.945C47.1176 109.211 50.9798 109.9 55 109.9Z" fill="url(#paint0_linear)" fill-opacity="0.6"></path><path d="M20.5 75.4C20.5 84.1801 23.7869 92.203 29.1859 98.2889L32.4812 116.001C34.0232 124.289 41.2554 130.3 49.6859 130.3H60.314C68.7446 130.3 75.9768 124.289 77.5188 116.001L80.8141 98.2889C86.213 92.203 89.5 84.1801 89.5 75.4C89.5 66.6198 86.2131 58.597 80.8141 52.5111L77.5188 34.7991C75.9768 26.5108 68.7446 20.5 60.314 20.5L49.6859 20.5C41.2554 20.5 34.0232 26.5108 32.4812 34.7991L30.1984 47.0692C29.382 51.4571 32.0515 54.6725 34.4466 56.103C36.8198 57.5205 40.4796 58.2096 43.8211 56.2533C47.0979 54.3348 50.9109 53.2333 55 53.2333C61.1414 53.2333 66.6897 55.7227 70.7107 59.7624C74.7072 63.7775 77.1667 69.2955 77.1667 75.4C77.1667 81.5044 74.7072 87.0225 70.7107 91.0376C66.6897 95.0772 61.1414 97.5667 55 97.5667C48.8586 97.5667 43.3103 95.0772 39.2893 91.0376C35.2928 87.0225 32.8333 81.5044 32.8333 75.4C32.8333 72.5387 33.3728 69.8113 34.3549 67.3081C35.4237 64.5836 34.8867 61.2075 32.355 59.4931L27.1108 55.942L26.6968 55.6617L26.4165 56.0757C22.6817 61.5911 20.5 68.2501 20.5 75.4ZM44.6064 37.055C45.0617 34.6079 47.1969 32.8333 49.6859 32.8333H60.314C62.8031 32.8333 64.9383 34.608 65.3936 37.055L66.4726 42.8551C62.8823 41.5892 59.0202 40.9 55 40.9C50.9838 40.9 47.1206 41.5886 43.5273 42.8553L44.6064 37.055ZM55 109.9C59.0202 109.9 62.8823 109.211 66.4726 107.945L65.3935 113.745C64.9383 116.192 62.8031 117.967 60.314 117.967H49.6859C47.1969 117.967 45.0617 116.192 44.6064 113.745L43.5273 107.945C47.1176 109.211 50.9798 109.9 55 109.9Z" stroke="white"></path><defs><filter id="filter0_f" x="10" y="10" width="110" height="150.8" filterUnits="userSpaceOnUse" color-interpolation-filters="sRGB"><feGaussianBlur stdDeviation="10"></feGaussianBlur></filter><filter id="filter1_f" x="0" y="0" width="90" height="130.8" filterUnits="userSpaceOnUse" color-interpolation-filters="sRGB"><feGaussianBlur stdDeviation="5"></feGaussianBlur></filter><linearGradient id="paint0_linear" x1="14.1567" y1="22.6485" x2="116.283" y2="91.0367" gradientUnits="userSpaceOnUse"><stop stop-color="#3A3892"></stop><stop offset="1" stop-color="#3A3892" stop-opacity="0"></stop></linearGradient></defs></svg>