<svg xmlns="http://www.w3.org/2000/svg" width="51" height="48" viewBox="0 0 51 48" fill="none"><path fill-rule="evenodd" clip-rule="evenodd" d="M38.4293 44.0516C34.6164 45.2082 30.1527 45.4738 25.3814 45.4738C11.3636 45.4738 0 43.1814 0 22.7369C0 2.29234 11.3636 0 25.3814 0C39.3991 0 50.7627 2.29234 50.7627 22.7369C50.7627 28.913 49.7257 33.4325 47.8918 36.7328L50.7627 47.9998L38.4293 44.0516Z" fill="#212162"></path><path d="M16.7261 30.0968C16.2549 30.0968 15.9175 29.9953 15.7137 29.7924C15.51 29.5768 15.4081 29.1773 15.4081 28.5939C15.4081 28.2008 15.4463 27.6998 15.5227 27.0911C15.6119 26.4696 15.7519 25.6199 15.943 24.5419C16.274 22.5508 16.5351 20.8259 16.7261 19.3675C16.8407 18.4543 16.898 17.6934 16.898 17.0846C16.898 16.5139 16.6879 16.2286 16.2677 16.2286C15.9366 16.2286 15.5354 16.3998 15.0643 16.7422C14.6058 17.0719 14.0964 17.6046 13.5361 18.3402C13.3578 18.5812 13.1604 18.7016 12.944 18.7016C12.7657 18.7016 12.6065 18.6192 12.4664 18.4543C12.3391 18.2768 12.2754 18.0802 12.2754 17.8646C12.2754 17.6617 12.3136 17.4588 12.39 17.2558C12.4791 17.0402 12.6192 16.7993 12.8102 16.5329C13.4215 15.6832 14.1028 15.0301 14.8541 14.5735C15.6055 14.1043 16.3568 13.8696 17.1082 13.8696C17.8086 13.8696 18.3434 14.0916 18.7127 14.5355C19.0948 14.9793 19.2858 15.6261 19.2858 16.4759C19.2858 16.8183 19.2539 17.2241 19.1903 17.6934C19.1266 18.1499 19.0693 18.5241 19.0184 18.8158C18.9674 19.1075 18.9292 19.3104 18.9037 19.4245C19.6296 17.3573 20.4446 15.9178 21.3488 15.1062C22.2529 14.2818 23.2462 13.8696 24.3287 13.8696C25.1564 13.8696 25.8059 14.1613 26.2771 14.7447C26.761 15.3281 27.0029 16.1525 27.0029 17.2178C27.0029 17.6363 26.9456 18.1563 26.831 18.7777C27.4677 17.0276 28.2127 15.772 29.0659 15.011C29.9192 14.2501 30.8997 13.8696 32.0076 13.8696C32.899 13.8696 33.5803 14.155 34.0515 14.7257C34.5354 15.2964 34.7774 16.0954 34.7774 17.1227C34.7774 17.6807 34.6946 18.3592 34.5291 19.1582L33.3639 24.599C33.2365 25.2331 33.1728 25.7784 33.1728 26.235C33.1728 26.7677 33.2938 27.1672 33.5358 27.4335C33.7905 27.6998 34.1407 27.833 34.5864 27.833C35.0066 27.833 35.4141 27.6935 35.8089 27.4145C36.2164 27.1354 36.694 26.6725 37.2415 26.0257C37.3944 25.8482 37.5663 25.7594 37.7573 25.7594C37.9228 25.7594 38.0502 25.8355 38.1393 25.9877C38.2412 26.1399 38.2921 26.3491 38.2921 26.6155C38.2921 27.1101 38.1712 27.5032 37.9292 27.7949C37.267 28.5939 36.6112 29.1773 35.9617 29.5451C35.3122 29.9129 34.631 30.0968 33.9178 30.0968C32.8354 30.0968 31.9885 29.7797 31.3773 29.1456C30.766 28.4988 30.4604 27.6364 30.4604 26.5584C30.4604 25.8101 30.6132 24.7258 30.9188 23.3054L31.6829 19.824C31.7084 19.7099 31.7529 19.507 31.8166 19.2153C31.8803 18.9236 31.9312 18.6509 31.9694 18.3973C32.0076 18.1309 32.0267 17.8709 32.0267 17.6173C32.0267 17.1734 31.9376 16.8437 31.7593 16.6281C31.5938 16.3998 31.3518 16.2856 31.0334 16.2856C30.4349 16.2856 29.8045 16.6724 29.1423 17.4461C28.4929 18.207 27.8689 19.4753 27.2704 21.2508C26.6846 23.0263 26.207 25.3345 25.8377 28.1754C25.7486 28.9364 25.5894 29.45 25.3602 29.7163C25.1437 29.97 24.7871 30.0968 24.2905 30.0968C23.8575 30.0968 23.5391 29.9953 23.3354 29.7924C23.1444 29.5895 23.0488 29.209 23.0488 28.651C23.0488 28.131 23.1189 27.4525 23.259 26.6155C23.399 25.7657 23.5773 24.7702 23.7938 23.6288C24.3796 20.5596 24.6725 18.5812 24.6725 17.6934C24.6725 17.2114 24.577 16.8563 24.386 16.6281C24.2077 16.3998 23.9339 16.2856 23.5646 16.2856C22.9406 16.2856 22.2975 16.6407 21.6353 17.351C20.9731 18.0485 20.3236 19.2977 19.6869 21.0986C19.0629 22.8868 18.5408 25.3092 18.1206 28.3656C18.0314 29.0124 17.8977 29.4627 17.7194 29.7163C17.5539 29.97 17.2228 30.0968 16.7261 30.0968Z" fill="white"></path></svg>