<svg xmlns="http://www.w3.org/2000/svg" width="164" height="165" viewBox="0 0 164 165" fill="none"><g opacity="0.15" filter="url(#filter0_f)"><path fill-rule="evenodd" clip-rule="evenodd" d="M129.013 50.8436C130.203 47.6245 127.07 44.4918 123.851 45.6815L47.0201 74.0756C43.6466 75.3224 43.4843 80.0333 46.7641 81.5091L56.2112 85.7604C62.9572 88.796 65.9649 96.7256 62.9293 103.472V103.472L41.2675 93.7237C27.0553 87.3282 27.7584 66.9143 42.3769 61.5118L119.208 33.1176C133.157 27.9624 146.732 41.5374 141.577 55.4867L113.183 132.318C107.781 146.936 87.3666 147.64 80.9711 133.427L71.4007 112.16C67.9752 104.548 69.6133 95.6104 75.5157 89.7079L93.7105 71.5131C96.3259 68.8977 100.566 68.8977 103.182 71.5131V71.5131C105.797 74.1285 105.797 78.369 103.182 80.9844L84.987 99.1792C83.0195 101.147 82.4735 104.126 83.6153 106.663L93.1858 127.931C94.6616 131.211 99.3726 131.048 100.619 127.675L129.013 50.8436Z" fill="#616589"></path><path d="M124.025 46.1505C126.843 45.1088 129.586 47.8517 128.544 50.6702L100.15 127.501C99.0587 130.455 94.9339 130.597 93.6417 127.726L84.0712 106.458C83.0147 104.11 83.5199 101.353 85.3405 99.5327L103.535 81.3379C106.346 78.5273 106.346 73.9703 103.535 71.1596C100.725 68.3489 96.1676 68.3489 93.357 71.1596L75.1622 89.3544C69.1128 95.4037 67.434 104.563 70.9447 112.365L80.5152 133.633C87.0943 148.253 108.095 147.53 113.652 132.491L142.046 55.66C147.349 41.3102 133.385 27.3454 119.035 32.6486L42.2036 61.0428C27.1653 66.6004 26.442 87.6006 41.0623 94.1797L62.7241 103.928L62.9293 103.472L63.3852 103.677C66.5342 96.679 63.4142 88.4534 56.4164 85.3044L46.9692 81.0532C44.0976 79.761 44.2397 75.6362 47.1934 74.5446L124.025 46.1505Z" stroke="white"></path></g><g filter="url(#filter1_f)"><path d="M104.025 26.1505C106.843 25.1088 109.586 27.8517 108.544 30.6702L80.1503 107.501C79.0587 110.455 74.9339 110.597 73.6417 107.726L64.0712 86.4579C63.0147 84.11 63.5199 81.3533 65.3405 79.5327L83.5353 61.3379C86.346 58.5273 86.346 53.9703 83.5353 51.1596C80.7246 48.3489 76.1676 48.3489 73.357 51.1596L55.1622 69.3544C49.1128 75.4037 47.434 84.5633 50.9447 92.3649L60.5152 113.633C67.0943 128.253 88.0945 127.53 93.6521 112.491L122.046 35.66C127.349 21.3102 113.385 7.34542 99.0349 12.6486L22.2036 41.0428C7.16533 46.6004 6.44197 67.6006 21.0623 74.1797L42.7241 83.9275L42.9293 83.4716L43.3852 83.6767C46.5342 76.679 43.4142 68.4534 36.4164 65.3044L26.9692 61.0532C24.0976 59.761 24.2397 55.6362 27.1934 54.5446L104.025 26.1505Z" fill="white" stroke="white"></path></g><path d="M114.025 36.1505C116.843 35.1088 119.586 37.8517 118.544 40.6702L90.1503 117.501C89.0587 120.455 84.9339 120.597 83.6417 117.726L74.0712 96.4579C73.0147 94.11 73.5199 91.3533 75.3405 89.5327L93.5353 71.3379C96.346 68.5273 96.346 63.9703 93.5353 61.1596C90.7246 58.3489 86.1676 58.3489 83.357 61.1596L65.1622 79.3544C59.1128 85.4037 57.434 94.5633 60.9447 102.365L70.5152 123.633C77.0943 138.253 98.0945 137.53 103.652 122.491L132.046 45.66C137.349 31.3102 123.385 17.3454 109.035 22.6486L32.2036 51.0428C17.1653 56.6004 16.442 77.6006 31.0623 84.1797L52.7241 93.9275L52.9293 93.4716L53.3852 93.6767C56.5342 86.679 53.4142 78.4534 46.4164 75.3044L36.9692 71.0532C34.0976 69.761 34.2397 65.6362 37.1934 64.5446L114.025 36.1505Z" fill="white"></path><path d="M114.025 36.1505C116.843 35.1088 119.586 37.8517 118.544 40.6702L90.1503 117.501C89.0587 120.455 84.9339 120.597 83.6417 117.726L74.0712 96.4579C73.0147 94.11 73.5199 91.3533 75.3405 89.5327L93.5353 71.3379C96.346 68.5273 96.346 63.9703 93.5353 61.1596C90.7246 58.3489 86.1676 58.3489 83.357 61.1596L65.1622 79.3544C59.1128 85.4037 57.434 94.5633 60.9447 102.365L70.5152 123.633C77.0943 138.253 98.0945 137.53 103.652 122.491L132.046 45.66C137.349 31.3102 123.385 17.3454 109.035 22.6486L32.2036 51.0428C17.1653 56.6004 16.442 77.6006 31.0623 84.1797L52.7241 93.9275L52.9293 93.4716L53.3852 93.6767C56.5342 86.679 53.4142 78.4534 46.4164 75.3044L36.9692 71.0532C34.0976 69.761 34.2397 65.6362 37.1934 64.5446L114.025 36.1505Z" fill="url(#paint0_linear)" fill-opacity="0.6"></path><path d="M114.025 36.1505C116.843 35.1088 119.586 37.8517 118.544 40.6702L90.1503 117.501C89.0587 120.455 84.9339 120.597 83.6417 117.726L74.0712 96.4579C73.0147 94.11 73.5199 91.3533 75.3405 89.5327L93.5353 71.3379C96.346 68.5273 96.346 63.9703 93.5353 61.1596C90.7246 58.3489 86.1676 58.3489 83.357 61.1596L65.1622 79.3544C59.1128 85.4037 57.434 94.5633 60.9447 102.365L70.5152 123.633C77.0943 138.253 98.0945 137.53 103.652 122.491L132.046 45.66C137.349 31.3102 123.385 17.3454 109.035 22.6486L32.2036 51.0428C17.1653 56.6004 16.442 77.6006 31.0623 84.1797L52.7241 93.9275L52.9293 93.4716L53.3852 93.6767C56.5342 86.679 53.4142 78.4534 46.4164 75.3044L36.9692 71.0532C34.0976 69.761 34.2397 65.6362 37.1934 64.5446L114.025 36.1505Z" stroke="white"></path><defs><filter id="filter0_f" x="10" y="10.9978" width="153.697" height="153.697" filterUnits="userSpaceOnUse" color-interpolation-filters="sRGB"><feGaussianBlur stdDeviation="10"></feGaussianBlur></filter><filter id="filter1_f" x="0" y="0.997803" width="133.697" height="133.697" filterUnits="userSpaceOnUse" color-interpolation-filters="sRGB"><feGaussianBlur stdDeviation="5"></feGaussianBlur></filter><linearGradient id="paint0_linear" x1="9.7594" y1="23.6924" x2="122.877" y2="144.89" gradientUnits="userSpaceOnUse"><stop stop-color="#3A3892"></stop><stop offset="1" stop-color="#3A3892" stop-opacity="0"></stop></linearGradient></defs></svg>