<svg xmlns="http://www.w3.org/2000/svg" width="220" height="31" viewBox="0 0 220 31" fill="none"><path d="M7.11527 17.1005V8.80657L4.63724 9.93756C4.63724 9.93756 3.99896 11.3702 4.1116 13.4436C4.18669 15.0647 5.08779 16.9874 5.80116 17.8168L7.11527 17.1005ZM14.3992 0.0225473C14.9999 0.060247 15.9761 0.361844 16.6895 1.00274C17.4779 1.75673 17.6281 2.88772 17.3653 3.94331C17.14 4.84811 16.8396 5.3382 15.901 5.9791C14.9623 6.61999 13.7984 6.58229 13.7984 6.58229V10.5785L15.7508 12.1618L13.7984 13.7452V19.2117C13.7984 19.2117 15.7508 18.0807 16.9523 15.5925C16.9523 15.5925 16.9898 15.4417 17.1025 15.2155C17.2151 15.8941 17.14 17.2513 16.3891 18.9855C15.8634 20.2296 14.8122 21.4737 13.5356 22.2277C11.2453 23.5095 9.5182 23.6226 7.64091 23.2456C5.46325 22.7932 3.51087 21.5868 2.15922 19.4379C1.22057 17.9299 0.807569 16.1957 0.845115 14.3107C0.920206 10.6162 3.66105 7.44939 6.8149 6.243C7.19036 6.0922 7.34054 6.0168 7.90373 5.9414C7.64091 6.1299 7.37809 6.3184 7.00263 6.58229C5.98889 7.26089 5.12534 8.58038 4.74988 9.59827L10.8699 6.84619V15.4417L5.9138 17.9299C6.47699 18.7216 8.2041 19.8903 9.63084 20.0788C12.1089 20.3427 13.5732 19.2494 13.5732 19.2494V13.6698L11.6583 12.0864L13.5732 10.5031V6.58229C12.5219 6.46919 11.2453 6.1299 10.4944 5.9414C9.44311 5.6398 5.76362 4.62191 5.20043 4.50881C4.63724 4.43341 3.92387 4.43341 3.47332 4.84811C3.06032 5.2251 2.75995 5.9037 2.94768 6.54459C3.06032 6.88389 3.28559 7.11009 3.47332 7.29859C3.47332 7.29859 3.24805 7.29859 2.87259 7.03469C2.19676 6.61999 1.67112 5.7906 1.59603 4.81041C1.52094 3.49092 2.08413 2.28453 3.17296 1.49284C4.1116 0.88964 5.16289 0.512643 6.4019 0.663442C8.2041 0.92734 10.6446 1.94523 12.7847 2.47303C13.6107 2.66153 14.2865 2.73692 14.8497 2.39763C15.1125 2.20913 15.6006 1.68133 15.2252 1.00274C14.7746 0.211046 13.8735 0.211046 13.1226 0.0979467C13.7609 -0.0151524 13.9111 -0.0151524 14.3992 0.0225473Z" fill="#212162"></path><path d="M38.2033 14.9518L35.4249 16.9876V10.164L38.2033 14.9518ZM38.1282 8.39209C38.1282 8.39209 36.2509 9.52308 34.9743 10.2771C33.6978 11.031 32.0082 11.8604 32.0082 11.8604V19.7774L30.8818 20.6822L31.032 20.8707L32.1208 19.9659L35.5751 23.0949L41.5824 18.3071L41.4322 18.1186L38.1282 20.7199L35.3873 18.1563V17.2138L40.869 13.1799L38.1282 8.39209Z" fill="#212162"></path><path d="M22.4337 26.1106C23.2222 26.2991 24.6114 26.4122 26.3009 25.5828C28.1407 24.6404 29.0793 22.68 29.0793 20.6442L29.1544 17.779V11.4832L30.3559 10.5784L30.2057 10.3899L29.0042 11.257L26.3009 8.24097L22.8467 11.2193V1.11572L18.5289 4.471C18.7167 4.5841 19.3174 4.6972 19.3549 5.56429V19.7394L17.5527 21.0966L17.6654 21.2851L18.5665 20.6065L21.007 22.9062L24.8742 19.8525L24.724 19.664L23.8229 20.3803L22.8467 19.4378V11.5586L23.9731 10.5784L25.6626 12.6896C25.6626 12.6896 25.6626 17.8167 25.6626 19.5132C25.6626 21.3228 25.6626 23.5848 24.6864 24.6781C23.7853 25.7336 23.3723 25.809 22.4337 26.1106Z" fill="#212162"></path><path d="M49.2794 25.3944C47.74 25.2059 47.1018 24.2634 47.1018 23.5471C47.1018 23.057 47.5523 22.1522 48.491 22.0014C49.4296 21.8883 50.4058 22.303 51.1943 23.2832L54.7611 19.3247L54.5734 19.1739L53.5972 20.2672C52.621 19.1362 51.2318 18.4577 49.8802 18.2315V6.16751L59.154 23.1324C59.154 23.1324 59.2291 23.3209 59.6421 23.3209C59.98 23.3209 59.9049 23.057 59.9049 23.057V5.97901C60.6558 5.94131 61.8197 5.52661 62.3829 4.96112C64.1851 3.11383 63.4342 1.11575 63.2465 0.927246C63.1338 1.79434 62.458 2.69914 61.3316 2.69914C59.8674 2.69914 58.9663 1.60584 58.9663 1.60584L55.3618 5.63971L55.5496 5.79051L56.5633 4.62182C57.8023 5.79051 58.741 5.86591 59.6796 5.94131V15.8564L52.7712 3.30233C52.1329 2.28444 51.1943 1.34195 49.73 1.34195C48.0029 1.34195 46.8014 2.84993 46.6512 4.13172C46.501 5.60201 46.6512 5.94131 46.6512 5.94131C46.6512 5.94131 46.914 4.32022 47.9278 4.32022C48.8289 4.32022 49.317 5.18732 49.6549 5.79051V9.40968C48.7162 9.48508 46.2758 9.59818 46.1256 12.1241C46.1256 13.0666 46.6888 14.0468 47.2144 14.3861C47.8902 14.8385 48.3783 14.8008 48.3783 14.8008C48.3783 14.8008 47.5899 14.3861 47.8151 13.5567C48.0404 12.8027 49.5798 12.6896 49.6173 12.9912V18.1184C48.8664 18.1184 46.501 18.1938 45.4122 20.2295C44.7739 21.4736 44.8115 22.8685 45.4873 23.8487C46.1256 24.7158 47.2895 25.7337 49.2794 25.3944Z" fill="#212162"></path><path d="M68.9151 14.9518L66.1368 16.9876V10.164L68.9151 14.9518ZM68.8401 8.39209C68.8401 8.39209 66.9628 9.52308 65.6862 10.2771C64.4097 11.031 62.7201 11.8604 62.7201 11.8604V19.7774L61.5938 20.6822L61.7439 20.8707L62.8328 19.9659L66.287 23.0949L72.2942 18.3071L72.144 18.1186L68.8401 20.7199L66.0992 18.1563V17.2138L71.5809 13.1799L68.8401 8.39209Z" fill="#212162"></path><path d="M77.251 23.1702L74.3225 20.7197L73.0459 21.6622L72.9333 21.4737L74.2474 20.4935V13.6699C74.3225 10.8424 71.6567 11.5587 71.8069 8.54273C71.882 7.22324 73.121 6.24305 73.7968 5.90375C74.4727 5.56445 75.2236 5.56445 75.2236 5.56445C75.2236 5.56445 74.0221 6.31845 74.3225 7.41174C74.773 9.07052 77.6265 9.22132 77.6641 11.4833V19.2117L79.7666 20.9082L80.3298 20.4558V12.0488L79.2034 10.9178L82.132 8.31653L84.7978 10.6916L83.784 11.7849V19.2494L86.2996 21.3229L86.7501 21.0213V12.0865L85.6238 11.0309L88.5523 8.35423L91.2932 10.6162L92.382 9.63602L92.5322 9.82452L90.0542 12.0111V19.3248L83.7465 23.2079L80.5175 20.6443L77.251 23.1702Z" fill="#212162"></path><path d="M206.146 14.9518L203.367 16.9876V10.164L206.146 14.9518ZM206.071 8.39209C206.071 8.39209 204.193 9.52308 202.917 10.2771C201.64 11.031 199.951 11.8604 199.951 11.8604V19.7774L198.824 20.6822L198.974 20.8707L200.063 19.9659L203.517 23.0949L209.525 18.3071L209.375 18.1186L206.071 20.7199L203.33 18.1563V17.2138L208.849 13.2176L206.071 8.39209Z" fill="#212162"></path><path d="M177.911 11.7096L178.061 11.8981L179.188 10.9179L180.877 12.8029V19.3626L180.051 20.1166L182.679 23.0572L185.345 20.4182L184.256 19.2495V11.3703L184.932 10.8048L186.772 12.9914V19.5134L186.059 20.2297L188.537 22.9818L191.165 20.3428L190.189 19.3249V11.3703L190.902 10.8048L192.817 12.9537V19.438L192.179 20.0789L194.882 23.0572L198.561 19.6642L198.374 19.5134L197.51 20.3051L196.158 18.7971V11.408L197.473 10.3901L197.322 10.2016L196.008 11.2195L193.53 8.42969L189.963 11.2195L187.485 8.50509L184.069 11.2195L181.553 8.54279L177.911 11.7096Z" fill="#212162"></path><path d="M170.515 11.521L170.665 11.6718L171.603 10.8424L173.105 12.6143V20.1165L172.054 21.0213L172.204 21.2098L173.293 20.2673L175.696 23.0571L179.188 19.928L179.038 19.7395L178.024 20.6443L176.56 18.9855V11.6718L177.799 10.6162L177.648 10.4654L176.484 11.4456L173.969 8.46729L170.515 11.521Z" fill="#212162"></path><path d="M171.491 5.30048L174.119 2.8877L176.26 5.26278L173.631 7.67556L171.491 5.30048Z" fill="#212162"></path><path d="M160.716 17.1004V8.80644L158.238 9.93743C158.238 9.93743 157.6 11.37 157.712 13.4435C157.787 15.0646 158.688 16.9873 159.402 17.8167L160.716 17.1004ZM168 0.0224091C168.6 0.0601088 169.577 0.361706 170.29 1.0026C171.078 1.7566 171.229 2.88759 170.966 3.94318C170.741 4.84797 170.44 5.33807 169.502 5.97896C168.563 6.61986 167.399 6.58216 167.399 6.58216V10.5783L169.351 12.1617L167.399 13.7451V19.2116C167.399 19.2116 169.351 18.0806 170.553 15.5924C170.553 15.5924 170.59 15.4416 170.703 15.2154C170.816 15.894 170.741 17.2512 169.99 18.9854C169.426 20.3049 168.375 21.549 167.099 22.2653C164.808 23.547 163.081 23.6601 161.241 23.2831C159.064 22.8307 157.111 21.6244 155.76 19.4755C154.821 17.9675 154.408 16.2333 154.446 14.3483C154.521 10.6537 157.262 7.48695 160.415 6.28056C160.791 6.12976 160.941 6.05436 161.504 5.97896C161.241 6.16746 160.979 6.35596 160.603 6.61986C159.589 7.29845 158.726 8.61794 158.35 9.63583L164.47 6.88375V15.4793L159.552 17.9675C160.115 18.7592 161.842 19.9279 163.269 20.1164C165.747 20.3803 167.211 19.287 167.211 19.287V13.7074L165.296 12.124L167.211 10.5406V6.58216C166.16 6.46906 164.883 6.12976 164.133 5.94126C163.044 5.67737 159.364 4.62177 158.801 4.54637C158.238 4.47098 157.524 4.47098 157.074 4.88567C156.661 5.26267 156.361 5.94126 156.548 6.58216C156.661 6.92146 156.886 7.14765 157.074 7.33615C157.074 7.33615 156.849 7.33615 156.473 7.07225C155.797 6.65756 155.272 5.82816 155.197 4.84797C155.122 3.52848 155.647 2.35979 156.736 1.5304C157.675 0.927202 158.726 0.550205 159.965 0.701004C161.767 0.964902 164.208 1.9828 166.348 2.51059C167.174 2.69909 167.85 2.77449 168.413 2.43519C168.676 2.24669 169.164 1.7189 168.788 1.0403C168.338 0.248607 167.437 0.248607 166.686 0.135508C167.361 -0.0152906 167.512 -0.0152906 168 0.0224091Z" fill="#212162"></path><path d="M213.88 9.93786V13.8586L215.194 14.9896C215.194 14.9896 218.01 12.7276 219.062 10.6164C219.062 10.6164 217.785 12.3506 216.058 11.8228C214.631 11.3704 213.88 9.93786 213.88 9.93786ZM210.726 20.3429C210.726 20.3429 211.965 18.2695 214.106 18.7218C216.133 19.1365 216.846 21.3231 216.846 21.3231V16.3468L215.42 15.1027C213.843 16.6861 211.064 18.948 210.726 20.3429ZM212.754 24.1506C212.341 24.2637 210.614 23.849 210.201 22.0394C209.788 20.3052 211.027 19.0988 212.829 17.2516L210.651 15.2535V11.4835C210.651 11.4835 212.228 10.6918 213.467 9.90016C214.706 9.10847 215.983 8.27907 215.983 8.27907C215.983 8.27907 216.922 9.44776 217.973 9.37237C219.625 9.22157 219.55 7.93978 219.475 7.63818C219.737 8.12828 220.488 9.63626 217.635 12.9915L220 14.9142V19.8151C220 19.8151 217.259 21.2477 214.706 23.1327C214.706 23.1327 213.28 21.3231 212.003 22.1902C211.177 22.718 211.552 23.6982 212.754 24.1506Z" fill="#212162"></path><path d="M118.326 18.5711L121.367 21.3231V12.8784L118.326 10.0509V18.5711ZM124.559 11.672L125.61 10.6918L125.76 10.8803L124.746 11.8228V19.6267C124.746 19.6267 122.794 20.6822 121.405 21.4362C120.053 22.2279 118.589 23.1327 118.589 23.1327L114.984 20.0791L114.046 20.9084L113.896 20.7199L114.909 19.8529V11.4835C114.909 11.4835 116.599 10.7295 118.026 9.90017C119.302 9.18388 120.729 8.35449 120.729 8.35449L124.559 11.672Z" fill="#212162"></path><path d="M131.617 10.88L133.907 8.54261C133.907 8.54261 134.208 8.8065 134.508 8.9573C134.658 9.0327 135.372 9.4097 136.01 9.0327C136.348 8.8442 136.385 8.8065 136.761 8.42951C136.836 10.2391 135.972 11.5209 134.884 12.0487C134.433 12.2749 133.156 12.6896 131.767 11.0308V19.4378L133.194 20.7196L134.395 19.7017L134.546 19.8902L130.753 23.057L127.9 20.418L126.849 21.3982L126.661 21.2097L128.238 19.7771V12.5011L127.036 10.88L125.985 11.7848L125.835 11.634L129.477 8.31641L131.617 10.88Z" fill="#212162"></path><path d="M141.229 14.3863L145.435 8.24131C145.435 8.24131 145.998 8.91991 146.974 9.1461C148.288 9.4854 149.452 8.20361 149.452 8.20361C149.227 9.8624 148.401 11.7097 146.674 12.0113C145.172 12.2752 143.745 11.0688 143.745 11.0688L143.482 11.4835L149.339 20.3806L150.503 19.3627L150.654 19.5512L146.636 23.095L141.229 14.3863Z" fill="#212162"></path><path d="M137.775 6.16771C137.775 4.84822 137.249 4.01882 136.536 4.09422L141.154 0.852051V19.2118L142.356 20.4936L143.294 19.7019L143.444 19.8904L139.727 23.1326L137.212 20.7575L136.198 21.6623L136.048 21.4738L137.812 19.9281V6.16771" fill="#212162"></path><path d="M108.226 11.3325C108.226 11.3325 107.7 11.898 106.912 11.898C106.123 11.898 105.598 11.3325 105.598 11.3325V13.8584C105.598 13.8584 106.123 13.2929 106.912 13.2929C107.7 13.2929 108.226 13.8584 108.226 13.8584V11.3325ZM108.226 5.94139L106.461 4.358L105.598 5.0366V10.9178C105.598 10.9178 106.123 11.5964 106.912 11.5964C107.7 11.5964 108.226 10.9555 108.226 10.9555V5.94139ZM105.598 22.6424C105.598 22.6424 106.686 22.944 107.437 22.3031C108.301 21.5868 108.226 20.5689 108.226 20.5689V14.1977C108.226 14.1977 107.738 13.5568 106.912 13.5568C106.123 13.5568 105.598 14.2354 105.598 14.2354V22.6424ZM99.2899 5.86599C99.2899 4.6219 98.8018 3.94331 97.9758 3.90561C96.8119 3.86791 96.5115 5.5267 96.5115 5.5267C96.5115 5.5267 96.2862 4.24491 97.3751 3.07622C97.9758 2.43532 99.1022 1.53053 100.829 1.94522C102.631 2.39762 103.157 3.79251 103.157 5.0366V22.1146C103.157 22.1146 103.833 22.19 104.321 22.3031C104.847 22.4162 105.372 22.567 105.372 22.567V1.98292H105.598V4.7727L109.277 1.79443L111.98 4.20721L113.257 3.11392L113.407 3.30241L112.093 4.4334V20.305C112.018 21.3229 111.868 22.3785 110.892 23.0194C108.714 24.3012 106.086 22.8309 103.758 22.4916C102.031 22.2277 99.2899 21.8884 98.6141 23.5095C98.3888 24.0373 98.3888 24.829 99.1773 25.3568C100.754 26.4124 107.775 23.5849 110.178 24.7159C112.393 25.7338 112.356 27.3548 112.018 28.4858C111.455 30.597 108.827 30.9363 108.827 30.9363C108.827 30.9363 110.103 30.1823 109.765 28.9382C109.577 28.2973 109.164 28.1465 107.775 28.2973C104.772 28.6366 101.167 30.1069 98.7267 29.089C97.4877 28.5612 96.5866 27.0156 96.6992 25.4699C96.7743 23.2456 99.2899 22.3785 99.2899 22.3785V14.1977C99.2148 13.8584 97.8632 13.9715 97.5628 14.5747C97.1122 15.4794 98.126 15.8941 98.126 15.8941C98.126 15.8941 97.3 16.0072 96.5866 15.2155C96.2487 14.8009 95.5353 13.406 96.474 12.1242C97.2249 11.0686 98.1635 10.8801 99.3274 10.767V5.86599H99.2899Z" fill="#212162"></path></svg>