<svg xmlns="http://www.w3.org/2000/svg" width="150" height="150" viewBox="0 0 150 150" fill="none"><g opacity="0.15" filter="url(#filter0_f)"><path fill-rule="evenodd" clip-rule="evenodd" d="M50.2857 47.7143C50.2857 33.5127 61.7984 22 76 22C90.2016 22 101.714 33.5127 101.714 47.7143V59.2857C101.714 65.0237 99.8349 70.3226 96.6581 74.6007L120.99 89.9208C126.598 93.4516 130 99.6142 130 106.241V110.714C130 121.365 121.365 130 110.714 130H41.2857C30.6345 130 22 121.365 22 110.714V106.241C22 99.6142 25.4023 93.4516 31.01 89.9207L51.1328 77.2508C54.9162 83.2598 53.1121 91.198 47.1032 94.9814L37.8605 100.801C35.9912 101.978 34.8571 104.032 34.8571 106.241V110.714C34.8571 114.265 37.7353 117.143 41.2857 117.143H110.714C114.265 117.143 117.143 114.265 117.143 110.714V106.241C117.143 104.032 116.009 101.978 114.14 100.801L85.9045 83.0233C82.8561 84.2967 79.5102 85 76 85C61.7984 85 50.2857 73.4873 50.2857 59.2857V47.7143ZM63.1429 47.7143C63.1429 40.6135 68.8992 34.8571 76 34.8571C83.1008 34.8571 88.8571 40.6135 88.8571 47.7143V59.2857C88.8571 66.3865 83.1008 72.1429 76 72.1429C68.8992 72.1429 63.1429 66.3865 63.1429 59.2857V47.7143Z" fill="#616589"></path></g><g filter="url(#filter1_f)"><path fill-rule="evenodd" clip-rule="evenodd" d="M38.2857 35.7143C38.2857 21.5127 49.7984 10 64 10C78.2016 10 89.7143 21.5127 89.7143 35.7143V47.2857C89.7143 53.0237 87.8349 58.3226 84.6581 62.6007L108.99 77.9208C114.598 81.4516 118 87.6142 118 94.241V98.7142C118 109.365 109.365 118 98.7143 118H29.2857C18.6345 118 10 109.365 10 98.7142V94.241C10 87.6142 13.4023 81.4516 19.01 77.9207L39.1328 65.2508C42.9162 71.2598 41.1121 79.198 35.1032 82.9814L25.8605 88.8009C23.9912 89.9778 22.8571 92.0321 22.8571 94.241V98.7142C22.8571 102.265 25.7353 105.143 29.2857 105.143H98.7143C102.265 105.143 105.143 102.265 105.143 98.7142V94.241C105.143 92.032 104.009 89.9778 102.14 88.8009L73.9045 71.0233C70.8561 72.2967 67.5102 73 64 73C49.7984 73 38.2857 61.4873 38.2857 47.2857V35.7143ZM51.1429 35.7143C51.1429 28.6135 56.8992 22.8571 64 22.8571C71.1008 22.8571 76.8571 28.6135 76.8571 35.7143V47.2857C76.8571 54.3865 71.1008 60.1429 64 60.1429C56.8992 60.1429 51.1429 54.3865 51.1429 47.2857V35.7143Z" fill="white"></path></g><path d="M45.556 70.9844L45.2895 70.5613L44.8664 70.8277L24.7436 83.4976C18.9905 87.12 15.5 93.4424 15.5 100.241V104.714C15.5 115.642 24.3584 124.5 35.2857 124.5H104.714C115.642 124.5 124.5 115.642 124.5 104.714V100.241C124.5 93.4424 121.01 87.12 115.256 83.4976L91.3768 68.4623C94.4229 64.1793 96.2143 58.941 96.2143 53.2857V41.7143C96.2143 27.2365 84.4778 15.5 70 15.5C55.5223 15.5 43.7857 27.2365 43.7857 41.7143V53.2857C43.7857 67.7635 55.5223 79.5 70 79.5C73.4853 79.5 76.8129 78.8195 79.8563 77.5838L107.873 95.224C109.597 96.3094 110.643 98.2038 110.643 100.241V104.714C110.643 107.988 107.989 110.643 104.714 110.643H35.2857C32.0115 110.643 29.3571 107.988 29.3571 104.714V100.241C29.3571 98.2039 30.403 96.3094 32.1269 95.224L41.3696 89.4045C47.6122 85.474 49.4865 77.2271 45.556 70.9844ZM57.6429 41.7143C57.6429 34.8896 63.1753 29.3571 70 29.3571C76.8247 29.3571 82.3571 34.8896 82.3571 41.7143V53.2857C82.3571 60.1104 76.8247 65.6429 70 65.6429C63.1753 65.6429 57.6429 60.1104 57.6429 53.2857V41.7143Z" fill="#F6F7FB"></path><path d="M45.556 70.9844L45.2895 70.5613L44.8664 70.8277L24.7436 83.4976C18.9905 87.12 15.5 93.4424 15.5 100.241V104.714C15.5 115.642 24.3584 124.5 35.2857 124.5H104.714C115.642 124.5 124.5 115.642 124.5 104.714V100.241C124.5 93.4424 121.01 87.12 115.256 83.4976L91.3768 68.4623C94.4229 64.1793 96.2143 58.941 96.2143 53.2857V41.7143C96.2143 27.2365 84.4778 15.5 70 15.5C55.5223 15.5 43.7857 27.2365 43.7857 41.7143V53.2857C43.7857 67.7635 55.5223 79.5 70 79.5C73.4853 79.5 76.8129 78.8195 79.8563 77.5838L107.873 95.224C109.597 96.3094 110.643 98.2038 110.643 100.241V104.714C110.643 107.988 107.989 110.643 104.714 110.643H35.2857C32.0115 110.643 29.3571 107.988 29.3571 104.714V100.241C29.3571 98.2039 30.403 96.3094 32.1269 95.224L41.3696 89.4045C47.6122 85.474 49.4865 77.2271 45.556 70.9844ZM57.6429 41.7143C57.6429 34.8896 63.1753 29.3571 70 29.3571C76.8247 29.3571 82.3571 34.8896 82.3571 41.7143V53.2857C82.3571 60.1104 76.8247 65.6429 70 65.6429C63.1753 65.6429 57.6429 60.1104 57.6429 53.2857V41.7143Z" fill="url(#paint0_linear)" fill-opacity="0.6"></path><path d="M45.556 70.9844L45.2895 70.5613L44.8664 70.8277L24.7436 83.4976C18.9905 87.12 15.5 93.4424 15.5 100.241V104.714C15.5 115.642 24.3584 124.5 35.2857 124.5H104.714C115.642 124.5 124.5 115.642 124.5 104.714V100.241C124.5 93.4424 121.01 87.12 115.256 83.4976L91.3768 68.4623C94.4229 64.1793 96.2143 58.941 96.2143 53.2857V41.7143C96.2143 27.2365 84.4778 15.5 70 15.5C55.5223 15.5 43.7857 27.2365 43.7857 41.7143V53.2857C43.7857 67.7635 55.5223 79.5 70 79.5C73.4853 79.5 76.8129 78.8195 79.8563 77.5838L107.873 95.224C109.597 96.3094 110.643 98.2038 110.643 100.241V104.714C110.643 107.988 107.989 110.643 104.714 110.643H35.2857C32.0115 110.643 29.3571 107.988 29.3571 104.714V100.241C29.3571 98.2039 30.403 96.3094 32.1269 95.224L41.3696 89.4045C47.6122 85.474 49.4865 77.2271 45.556 70.9844ZM57.6429 41.7143C57.6429 34.8896 63.1753 29.3571 70 29.3571C76.8247 29.3571 82.3571 34.8896 82.3571 41.7143V53.2857C82.3571 60.1104 76.8247 65.6429 70 65.6429C63.1753 65.6429 57.6429 60.1104 57.6429 53.2857V41.7143Z" stroke="white"></path><defs><filter id="filter0_f" x="2" y="2" width="148" height="148" filterUnits="userSpaceOnUse" color-interpolation-filters="sRGB"><feGaussianBlur stdDeviation="10"></feGaussianBlur></filter><filter id="filter1_f" x="0" y="0" width="128" height="128" filterUnits="userSpaceOnUse" color-interpolation-filters="sRGB"><feGaussianBlur stdDeviation="5"></feGaussianBlur></filter><linearGradient id="paint0_linear" x1="5.13124" y1="17.6364" x2="114.507" y2="134.825" gradientUnits="userSpaceOnUse"><stop stop-color="#3A3892"></stop><stop offset="1" stop-color="#3A3892" stop-opacity="0"></stop></linearGradient></defs></svg>